<svg width="19" height="18" viewBox="0 0 19 18" fill="none" xmlns="http://www.w3.org/2000/svg">
<path fill-rule="evenodd" clip-rule="evenodd" d="M9.41686 0.666687C7.00062 0.666687 5.04186 2.62544 5.04186 5.04169V6.36238C5.04186 8.77864 7.00062 10.7374 9.41686 10.7374C11.8331 10.7374 13.7919 8.77864 13.7919 6.36238V5.04169C13.7919 2.62544 11.8331 0.666687 9.41686 0.666687ZM4.16675 10.7372H4.71747C5.84103 12.079 7.52874 12.9324 9.4157 12.9324C11.3028 12.9324 12.9905 12.079 14.114 10.7372H14.6667L17.8443 12.326C18.0419 12.4248 18.1667 12.6268 18.1667 12.8477V17.1538C18.1667 17.4759 17.9055 17.7371 17.5834 17.7371H1.25008C0.927918 17.7371 0.666748 17.4759 0.666748 17.1538V12.8477C0.666748 12.6268 0.791581 12.4248 0.989203 12.326L4.16675 10.7372Z" fill="white"/>
</svg>
