<svg width="14" height="20" viewBox="0 0 14 20" fill="none" xmlns="http://www.w3.org/2000/svg">
<path fill-rule="evenodd" clip-rule="evenodd" d="M0 4.16679C0 2.23364 3.13388 0.666687 7.00035 0.666687C10.8668 0.666687 14 2.23364 14 4.16679V5.33335C14 7.26651 10.8666 8.83347 7.00035 8.83347C3.13409 8.83347 0 7.26651 0 5.33335V4.16679ZM7.00035 9.9999C3.13388 9.9999 0 8.79765 0 6.86456V8.83335C0 10.7663 3.13409 12.3332 7.00035 12.3332C10.8666 12.3332 13.9992 10.7661 13.9992 8.83335V6.86611C13.9984 8.79835 10.8658 9.9999 7.00035 9.9999ZM0 10.3647C0 12.2977 3.13388 13.5001 7.00035 13.5001C10.8658 13.5001 13.9984 12.2982 13.9992 10.3662V12.3334C13.9992 14.2664 10.8666 15.8332 7.00035 15.8332C3.13409 15.8332 0 14.2664 0 12.3334V10.3647ZM0 13.8647C0 15.7977 3.13388 17 7.00035 17C10.8658 17 13.9984 15.7982 13.9992 13.8665V15.8335C13.9992 17.7666 10.8659 19.3334 7.00035 19.3334C3.13472 19.3334 0.00063 17.7666 0 15.8334V13.8647Z" fill="white"/>
</svg>
