<svg viewBox="0 0 55 48" fill="none" xmlns="http://www.w3.org/2000/svg">
<g id="F1">
<path id="Vector" d="M41.2123 48H13.6653C10.2808 48 7.53894 45.2581 7.53894 41.8736C7.53894 38.4892 10.2808 35.7473 13.6653 35.7473H41.2123C44.5968 35.7473 47.3386 38.4892 47.3386 41.8736C47.3386 45.2581 44.5968 48 41.2123 48Z" fill="#2D2D2D"/>
<path id="Vector_2" d="M48.1098 36.0472C46.0105 36.0472 43.9541 34.9334 42.7974 33.0055L29.0453 9.18564C27.3745 6.27242 28.3598 2.50237 31.273 0.831557C34.1863 -0.83926 37.9563 0.146094 39.6271 3.05931L53.3793 26.8792C55.0501 29.7924 54.0647 33.5624 51.1515 35.2332C50.1661 35.7902 49.138 36.0472 48.1098 36.0472Z" fill="#2D2D2D"/>
<path id="Vector_3" d="M6.76779 36.0472C5.7396 36.0472 4.66857 35.7902 3.72606 35.2332C0.812841 33.5624 -0.215359 29.7924 1.4983 26.8792L15.2504 3.05931C16.9212 0.146089 20.6913 -0.882106 23.6045 0.831552C26.5177 2.50237 27.5459 6.27242 25.8322 9.18564L12.0801 33.0055C10.9663 34.9334 8.90987 36.0472 6.76779 36.0472Z" fill="#2D2D2D"/>
</g>
</svg>
