<svg viewBox="0 0 53 48" fill="none" xmlns="http://www.w3.org/2000/svg">
<path id="G4" d="M49.1502 29.8574C47.0624 27.7696 44.2787 26.7257 41.5336 26.7644C39.9098 26.7644 38.4406 25.9138 37.6287 24.522L35.3089 20.5397C34.497 19.1478 34.497 17.408 35.3089 16.0161C37.706 11.9565 37.1647 6.62102 33.6464 3.1027C29.5095 -1.03423 22.7821 -1.03423 18.6065 3.1027C15.0882 6.62102 14.5469 11.9178 16.944 16.0161C17.756 17.408 17.756 19.1478 16.944 20.5397L14.6243 24.522C13.8123 25.9138 12.3432 26.8031 10.7193 26.7644C7.97425 26.7257 5.19049 27.7696 3.1027 29.8574C-1.03423 33.9944 -1.03423 40.7217 3.1027 44.8973C7.23963 49.0342 13.967 49.0342 18.1426 44.8973C18.8385 44.2014 19.4184 43.4281 19.8824 42.6162C20.6943 41.2243 22.1635 40.3351 23.7873 40.3351H28.3882C30.0121 40.3351 31.5199 41.1857 32.2932 42.6162C32.7571 43.4281 33.3371 44.2014 34.033 44.8973C38.1699 49.0342 44.8973 49.0342 49.0729 44.8973C53.2871 40.7217 53.2871 33.9944 49.1502 29.8574ZM19.8438 27.4217L22.1635 23.4394C22.9754 22.0089 24.4833 21.1969 26.1458 21.1969C26.1844 21.1969 26.2231 21.1969 26.2618 21.1969C27.8856 21.1969 29.3935 22.0475 30.2441 23.4394L32.5639 27.4217C33.3758 28.8135 33.3757 30.5534 32.5252 31.9452C32.4865 31.9839 32.4865 32.0226 32.4865 32.0612C31.6746 33.4917 30.1667 34.381 28.5429 34.381H23.942C22.3182 34.381 20.8103 33.4917 19.9984 32.0612C19.9984 32.0226 19.9597 31.9839 19.9597 31.9452C19.0318 30.592 19.0318 28.8522 19.8438 27.4217Z" fill="#2D2D2D"/>
</svg>
