<svg viewBox="0 0 49 48" fill="none" xmlns="http://www.w3.org/2000/svg">
<g id="H3">
<path id="Vector" d="M28.992 0H19.0464C17.3568 0 16.0128 1.34401 16.0128 3.03361V12.9792C16.0128 14.6688 17.3568 16.0128 19.0464 16.0128H28.992C30.6816 16.0128 32.0256 14.6688 32.0256 12.9792V3.03361C32.0256 1.34401 30.6432 0 28.992 0Z" fill="#2D2D2D"/>
<path id="Vector_2" d="M19.0464 48.0001H28.992C30.6816 48.0001 32.0256 46.6561 32.0256 44.9665V35.0209C32.0256 33.3313 30.6816 31.9873 28.992 31.9873H19.0464C17.3568 31.9873 16.0128 33.3313 16.0128 35.0209V44.9665C16.0128 46.6177 17.3952 48.0001 19.0464 48.0001Z" fill="#2D2D2D"/>
<path id="Vector_3" d="M32.0255 19.008V28.9536C32.0255 30.6432 33.3695 31.9872 35.0591 31.9872H45.0047C46.6943 31.9872 48.0383 30.6432 48.0383 28.9536V19.008C48.0383 17.3184 46.6943 15.9744 45.0047 15.9744H35.0591C33.3695 15.9744 32.0255 17.3568 32.0255 19.008Z" fill="#2D2D2D"/>
<path id="Vector_4" d="M0 19.008V28.9536C0 30.6432 1.34401 31.9872 3.03361 31.9872H12.9792C14.6688 31.9872 16.0128 30.6432 16.0128 28.9536V19.008C16.0128 17.3184 14.6688 15.9744 12.9792 15.9744H3.03361C1.38241 15.9744 0 17.3568 0 19.008Z" fill="#2D2D2D"/>
</g>
</svg>
