<svg viewBox="0 0 49 48" fill="none" xmlns="http://www.w3.org/2000/svg">
<g id="G1">
<path id="G1_2" d="M0.333252 12.7002V35.2998C0.333252 42.3213 6.00736 48 13.0233 48H35.6048C42.6208 48 48.2949 42.3213 48.2949 35.2998V12.7002C48.2949 5.67866 42.6208 0 35.6048 0H13.0233C6.00736 0.0383693 0.333252 5.71703 0.333252 12.7002ZM13.0617 44.8153C7.77093 44.8153 3.477 40.518 3.477 35.223C3.477 29.9281 7.77093 25.6307 13.0617 25.6307C18.3524 25.6307 22.6463 29.9281 22.6463 35.223C22.6463 40.518 18.3524 44.8153 13.0617 44.8153ZM13.0617 22.3693C7.77093 22.3693 3.477 18.0719 3.477 12.777C3.477 7.48201 7.77093 3.18465 13.0617 3.18465C18.3524 3.18465 22.6463 7.48201 22.6463 12.777C22.6463 18.0719 18.3524 22.3693 13.0617 22.3693ZM35.4898 44.8153C30.199 44.8153 25.9051 40.518 25.9051 35.223C25.9051 29.9281 30.199 25.6307 35.4898 25.6307C40.7805 25.6307 45.0744 29.9281 45.0744 35.223C45.0744 40.518 40.7805 44.8153 35.4898 44.8153ZM35.4898 22.3693C30.199 22.3693 25.9051 18.0719 25.9051 12.777C25.9051 7.48201 30.199 3.18465 35.4898 3.18465C40.7805 3.18465 45.0744 7.48201 45.0744 12.777C45.0744 18.0719 40.7805 22.3693 35.4898 22.3693Z" fill="#2D2D2D"/>
</g>
</svg>
