<svg viewBox="0 0 24 24" fill="none" xmlns="http://www.w3.org/2000/svg">
<path fill-rule="evenodd" clip-rule="evenodd" d="M7.43636 7C7.68807 6.44266 8.03993 5.93894 8.46875 5.51158L12 2L15.5312 5.51158C15.9601 5.93894 16.3119 6.44266 16.5636 7H19C20.1 7 21 7.9 21 9V19C21 20.1 20.1 21 19 21H4.99C3.88 21 3 20.1 3 19L3.01 9C3.01 7.9 3.88 7 4.99 7H7.43636ZM12 12.7368V3.77474L9.34375 6.41474C8.6375 7.11579 8.25 8.04421 8.25 9.02947C8.25 11.0758 9.93125 12.7368 12 12.7368ZM16.9999 9C17 9.00982 17 9.01964 17 9.02947C17 11.7768 14.7625 14 12 14C9.2375 14 7 11.7768 7 9.02947C7 9.01964 7.00003 9.00982 7.00009 9H4.99V16H9C9 17.66 10.35 19 12 19C13.65 19 15 17.66 15 16H19V9H16.9999Z" fill="white" />
</svg>
