<svg width="24" height="24" viewBox="0 0 24 24" fill="none" xmlns="http://www.w3.org/2000/svg">
<rect width="24" height="24" rx="6" fill="white" fill-opacity="0.1"/>
<path d="M12.0006 15.6268C9.05461 15.6268 6.66675 14.7473 6.66675 13.3334V14.7733C6.66675 16.1874 9.05477 17.3334 12.0006 17.3334C14.9465 17.3334 17.3334 16.1874 17.3334 14.7733V13.3334C17.3341 14.7473 14.9467 15.6268 12.0006 15.6268ZM12.0006 12.9601C9.05461 12.9601 6.66675 12.0807 6.66675 10.6667V12.1068C6.66675 13.5206 9.05477 14.6667 12.0006 14.6667C14.9465 14.6667 17.3334 13.5205 17.3334 12.1068V10.6667C17.3341 12.0807 14.9467 12.9601 12.0006 12.9601ZM12.0003 6.66675C9.05446 6.66675 6.66675 7.69005 6.66675 8.9525V9.71433C6.66675 10.9767 9.05462 12.0001 12.0003 12.0001C14.946 12.0001 17.3334 10.9767 17.3334 9.71433V8.9525C17.3334 7.69005 14.9461 6.66675 12.0003 6.66675Z" fill="white"/>
</svg>
