<svg width="15" height="13" viewBox="0 0 15 13" fill="none" xmlns="http://www.w3.org/2000/svg">
<path d="M3.45703 0.685547C3.49805 0.685547 3.53906 0.69694 3.58008 0.719727C3.62109 0.742513 3.65072 0.774414 3.66895 0.81543L4.13379 1.875C4.18848 2.0026 4.27279 2.09831 4.38672 2.16211C4.50521 2.22135 4.62142 2.27376 4.73535 2.31934C4.85384 2.36035 4.95638 2.40365 5.04297 2.44922C5.12956 2.49479 5.17285 2.56315 5.17285 2.6543C5.17285 2.74544 5.12728 2.8138 5.03613 2.85938C4.94954 2.90495 4.84701 2.95052 4.72852 2.99609C4.61458 3.04167 4.50065 3.09635 4.38672 3.16016C4.27279 3.2194 4.18848 3.30827 4.13379 3.42676L3.66895 4.49316C3.65072 4.53418 3.62109 4.56608 3.58008 4.58887C3.54362 4.61165 3.5026 4.62305 3.45703 4.62305C3.41602 4.62305 3.375 4.61165 3.33398 4.58887C3.29297 4.56608 3.26335 4.53418 3.24512 4.49316L2.78027 3.42676C2.72559 3.30371 2.639 3.21257 2.52051 3.15332C2.40658 3.08952 2.29036 3.03711 2.17188 2.99609C2.05794 2.95052 1.9554 2.90495 1.86426 2.85938C1.77767 2.8138 1.73438 2.74544 1.73438 2.6543C1.73438 2.56771 1.77767 2.50163 1.86426 2.45605C1.9554 2.40592 2.06022 2.35807 2.17871 2.3125C2.2972 2.26693 2.41341 2.21224 2.52734 2.14844C2.64128 2.08464 2.72559 1.99349 2.78027 1.875L3.24512 0.81543C3.26335 0.774414 3.29069 0.742513 3.32715 0.719727C3.36816 0.69694 3.41146 0.685547 3.45703 0.685547ZM8.85742 0.692383C8.98958 0.692383 9.11491 0.728841 9.2334 0.801758C9.35645 0.870117 9.44303 0.96582 9.49316 1.08887L10.9014 4.41113C10.9925 4.62988 11.1178 4.82357 11.2773 4.99219C11.4368 5.15625 11.626 5.28613 11.8447 5.38184L13.6221 6.18848C13.7451 6.24316 13.8408 6.33203 13.9092 6.45508C13.9821 6.57357 14.0186 6.69889 14.0186 6.83105C14.0186 6.96322 13.9821 7.09082 13.9092 7.21387C13.8408 7.33236 13.7451 7.41895 13.6221 7.47363L11.8447 8.28027C11.6305 8.37598 11.4414 8.50814 11.2773 8.67676C11.1178 8.84538 10.9925 9.03678 10.9014 9.25098L9.49316 12.5732C9.44303 12.6963 9.35645 12.7943 9.2334 12.8672C9.11491 12.9401 8.98958 12.9766 8.85742 12.9766C8.72982 12.9766 8.60449 12.9401 8.48145 12.8672C8.36296 12.7943 8.27865 12.6963 8.22852 12.5732L6.82031 9.25098C6.72917 9.03223 6.60384 8.84082 6.44434 8.67676C6.28483 8.50814 6.0957 8.37598 5.87695 8.28027L4.09961 7.47363C3.97656 7.41895 3.87858 7.33236 3.80566 7.21387C3.7373 7.09082 3.70312 6.96322 3.70312 6.83105C3.70312 6.69889 3.7373 6.57357 3.80566 6.45508C3.87858 6.33203 3.97656 6.24316 4.09961 6.18848L5.87695 5.38184C6.09115 5.28613 6.27799 5.15397 6.4375 4.98535C6.60156 4.81673 6.72917 4.62533 6.82031 4.41113L8.22852 1.08887C8.27865 0.96582 8.36296 0.870117 8.48145 0.801758C8.60449 0.728841 8.72982 0.692383 8.85742 0.692383ZM4.6875 9.77734C4.6875 9.85938 4.66016 9.92773 4.60547 9.98242C4.55078 10.0371 4.48014 10.0872 4.39355 10.1328C4.31152 10.1738 4.2181 10.2148 4.11328 10.2559C4.01302 10.2923 3.91276 10.3379 3.8125 10.3926C3.71224 10.4427 3.62109 10.5042 3.53906 10.5771C3.45703 10.6455 3.39323 10.7344 3.34766 10.8438L2.74609 12.3066C2.72331 12.3613 2.68685 12.4046 2.63672 12.4365C2.58659 12.4684 2.5319 12.4844 2.47266 12.4844C2.41797 12.4844 2.36328 12.4661 2.30859 12.4297C2.25846 12.3978 2.22201 12.3568 2.19922 12.3066L1.59766 10.8438C1.55208 10.7344 1.486 10.6432 1.39941 10.5703C1.31738 10.4974 1.22624 10.4359 1.12598 10.3857C1.03027 10.3311 0.930013 10.2855 0.825195 10.249C0.720378 10.208 0.624674 10.167 0.538086 10.126C0.456055 10.0804 0.387695 10.0326 0.333008 9.98242C0.282878 9.92773 0.257812 9.85938 0.257812 9.77734C0.257812 9.69531 0.282878 9.62695 0.333008 9.57227C0.387695 9.51758 0.456055 9.46973 0.538086 9.42871C0.624674 9.3877 0.720378 9.34896 0.825195 9.3125C0.930013 9.27148 1.03027 9.22591 1.12598 9.17578C1.22624 9.12565 1.31738 9.06413 1.39941 8.99121C1.486 8.91374 1.55208 8.82031 1.59766 8.71094L2.19922 7.24805C2.22201 7.19792 2.25846 7.1569 2.30859 7.125C2.36328 7.0931 2.41797 7.07715 2.47266 7.07715C2.5319 7.07715 2.58659 7.0931 2.63672 7.125C2.68685 7.15234 2.72331 7.19336 2.74609 7.24805L3.34766 8.71094C3.39323 8.82031 3.45703 8.91146 3.53906 8.98438C3.62109 9.05729 3.71224 9.11882 3.8125 9.16895C3.91276 9.21908 4.01302 9.26465 4.11328 9.30566C4.2181 9.34668 4.31152 9.3877 4.39355 9.42871C4.48014 9.46973 4.55078 9.51758 4.60547 9.57227C4.66016 9.62695 4.6875 9.69531 4.6875 9.77734Z" fill="#55F9C7"/>
</svg>
