<svg width="41" height="40" viewBox="0 0 41 40" fill="none" xmlns="http://www.w3.org/2000/svg">
<g opacity="0.2" clip-path="url(#clip0_244_3407)">
<path d="M36.5136 2.05325C36.5136 3.15406 37.406 4.04644 38.5068 4.04644C39.6076 4.04644 40.5 3.15406 40.5 2.05325C40.5 0.952441 39.6076 0.0600586 38.5068 0.0600585C37.406 0.0600585 36.5136 0.952441 36.5136 2.05325Z" fill="black"/>
<path d="M30.4736 7.97268C30.4736 9.07349 31.366 9.96588 32.4668 9.96588C33.5676 9.96588 34.46 9.07349 34.46 7.97268C34.46 6.87187 33.5676 5.97949 32.4668 5.97949C31.366 5.97949 30.4736 6.87187 30.4736 7.97268Z" fill="black"/>
<path d="M36.5136 7.97268C36.5136 9.07349 37.406 9.96588 38.5068 9.96588C39.6076 9.96588 40.5 9.07349 40.5 7.97268C40.5 6.87187 39.6076 5.97949 38.5068 5.97949C37.406 5.97949 36.5136 6.87187 36.5136 7.97268Z" fill="black"/>
<path d="M30.4736 14.0127C30.4736 15.1135 31.366 16.0059 32.4668 16.0059C33.5676 16.0059 34.46 15.1135 34.46 14.0127C34.46 12.9119 33.5676 12.0195 32.4668 12.0195C31.366 12.0195 30.4736 12.9119 30.4736 14.0127Z" fill="black"/>
<path d="M24.5544 14.0127C24.5544 15.1135 25.4468 16.0059 26.5476 16.0059C27.6484 16.0059 28.5408 15.1135 28.5408 14.0127C28.5408 12.9119 27.6484 12.0195 26.5476 12.0195C25.4468 12.0195 24.5544 12.9119 24.5544 14.0127Z" fill="black"/>
<path d="M36.5136 14.0127C36.5136 15.1135 37.406 16.0059 38.5068 16.0059C39.6076 16.0059 40.5 15.1135 40.5 14.0127C40.5 12.9119 39.6076 12.0195 38.5068 12.0195C37.406 12.0195 36.5136 12.9119 36.5136 14.0127Z" fill="black"/>
<path d="M30.4736 19.9322C30.4736 21.033 31.366 21.9254 32.4668 21.9254C33.5676 21.9254 34.46 21.033 34.46 19.9322C34.46 18.8313 33.5676 17.939 32.4668 17.939C31.366 17.939 30.4736 18.8313 30.4736 19.9322Z" fill="black"/>
<path d="M24.5544 19.9322C24.5544 21.033 25.4468 21.9254 26.5476 21.9254C27.6484 21.9254 28.5408 21.033 28.5408 19.9322C28.5408 18.8313 27.6484 17.939 26.5476 17.939C25.4468 17.939 24.5544 18.8313 24.5544 19.9322Z" fill="black"/>
<path d="M36.5136 19.9322C36.5136 21.033 37.406 21.9254 38.5068 21.9254C39.6076 21.9254 40.5 21.033 40.5 19.9322C40.5 18.8313 39.6076 17.939 38.5068 17.939C37.406 17.939 36.5136 18.8313 36.5136 19.9322Z" fill="black"/>
<path d="M30.4736 25.8511C30.4736 26.9519 31.366 27.8443 32.4668 27.8443C33.5676 27.8443 34.46 26.9519 34.46 25.8511C34.46 24.7503 33.5676 23.8579 32.4668 23.8579C31.366 23.8579 30.4736 24.7503 30.4736 25.8511Z" fill="black"/>
<path d="M24.5544 25.8511C24.5544 26.9519 25.4468 27.8443 26.5476 27.8443C27.6484 27.8443 28.5408 26.9519 28.5408 25.8511C28.5408 24.7503 27.6484 23.8579 26.5476 23.8579C25.4468 23.8579 24.5544 24.7503 24.5544 25.8511Z" fill="black"/>
<path d="M18.6352 19.9322C18.6352 21.033 19.5276 21.9254 20.6284 21.9254C21.7292 21.9254 22.6216 21.033 22.6216 19.9322C22.6216 18.8313 21.7292 17.939 20.6284 17.939C19.5276 17.939 18.6352 18.8313 18.6352 19.9322Z" fill="black"/>
<path d="M18.6352 25.8511C18.6352 26.9519 19.5276 27.8443 20.6284 27.8443C21.7292 27.8443 22.6216 26.9519 22.6216 25.8511C22.6216 24.7503 21.7292 23.8579 20.6284 23.8579C19.5276 23.8579 18.6352 24.7503 18.6352 25.8511Z" fill="black"/>
<path d="M12.5951 14.0129C12.5951 15.1137 13.4876 16.0062 14.5885 16.0062C15.6893 16.0062 16.5818 15.1137 16.5818 14.0129C16.5818 12.912 15.6893 12.0195 14.5885 12.0195C13.4876 12.0195 12.5951 12.912 12.5951 14.0129Z" fill="black"/>
<path d="M12.5951 19.9318C12.5951 21.0327 13.4876 21.9251 14.5885 21.9251C15.6893 21.9251 16.5818 21.0327 16.5818 19.9318C16.5818 18.8309 15.6893 17.9385 14.5885 17.9385C13.4876 17.9385 12.5951 18.8309 12.5951 19.9318Z" fill="black"/>
<path d="M12.5951 25.8512C12.5951 26.9521 13.4876 27.8446 14.5885 27.8446C15.6893 27.8446 16.5818 26.9521 16.5818 25.8512C16.5818 24.7504 15.6893 23.8579 14.5885 23.8579C13.4876 23.8579 12.5951 24.7504 12.5951 25.8512Z" fill="black"/>
<path d="M6.66865 7.97268C6.66865 9.07349 7.56103 9.96588 8.66184 9.96588C9.76265 9.96588 10.655 9.07349 10.655 7.97268C10.655 6.87187 9.76265 5.97949 8.66184 5.97949C7.56103 5.97949 6.66865 6.87187 6.66865 7.97268Z" fill="black"/>
<path d="M6.66865 14.0127C6.66865 15.1135 7.56103 16.0059 8.66184 16.0059C9.76265 16.0059 10.655 15.1135 10.655 14.0127C10.655 12.9119 9.76265 12.0195 8.66184 12.0195C7.56103 12.0195 6.66865 12.9119 6.66865 14.0127Z" fill="black"/>
<path d="M6.66865 19.9322C6.66865 21.033 7.56103 21.9254 8.66184 21.9254C9.76265 21.9254 10.655 21.033 10.655 19.9322C10.655 18.8313 9.76265 17.939 8.66184 17.939C7.56103 17.939 6.66865 18.8313 6.66865 19.9322Z" fill="black"/>
<path d="M6.66865 25.8511C6.66865 26.9519 7.56103 27.8443 8.66184 27.8443C9.76265 27.8443 10.655 26.9519 10.655 25.8511C10.655 24.7503 9.76265 23.8579 8.66184 23.8579C7.56103 23.8579 6.66865 24.7503 6.66865 25.8511Z" fill="black"/>
<path d="M24.5544 32.0196C24.5544 33.1204 25.4468 34.0128 26.5476 34.0128C27.6484 34.0128 28.5408 33.1204 28.5408 32.0196C28.5408 30.9188 27.6484 30.0264 26.5476 30.0264C25.4468 30.0264 24.5544 30.9187 24.5544 32.0196Z" fill="black"/>
<path d="M18.6352 32.0196C18.6352 33.1204 19.5276 34.0128 20.6284 34.0128C21.7292 34.0128 22.6216 33.1204 22.6216 32.0196C22.6216 30.9188 21.7292 30.0264 20.6284 30.0264C19.5276 30.0264 18.6352 30.9187 18.6352 32.0196Z" fill="black"/>
<path d="M12.5951 32.0197C12.5951 33.1206 13.4876 34.013 14.5885 34.013C15.6893 34.013 16.5818 33.1206 16.5818 32.0197C16.5818 30.9188 15.6893 30.0264 14.5885 30.0264C13.4876 30.0264 12.5951 30.9188 12.5951 32.0197Z" fill="black"/>
<path d="M0.499916 2.05339C0.499916 3.15427 1.39236 4.04671 2.49324 4.04671C3.59413 4.04671 4.48657 3.15427 4.48657 2.05339C4.48657 0.952501 3.59413 0.0600586 2.49324 0.0600585C1.39236 0.0600585 0.499916 0.952501 0.499916 2.05339Z" fill="black"/>
<path d="M0.499916 7.97282C0.499916 9.0737 1.39236 9.96615 2.49324 9.96615C3.59413 9.96615 4.48657 9.0737 4.48657 7.97282C4.48657 6.87194 3.59413 5.97949 2.49324 5.97949C1.39236 5.97949 0.499916 6.87193 0.499916 7.97282Z" fill="black"/>
<path d="M0.499916 14.0129C0.499916 15.1137 1.39236 16.0062 2.49324 16.0062C3.59413 16.0062 4.48657 15.1137 4.48657 14.0129C4.48657 12.912 3.59413 12.0195 2.49324 12.0195C1.39236 12.0195 0.499916 12.912 0.499916 14.0129Z" fill="black"/>
<path d="M0.499916 19.9318C0.499916 21.0327 1.39236 21.9251 2.49324 21.9251C3.59413 21.9251 4.48657 21.0327 4.48657 19.9318C4.48657 18.8309 3.59413 17.9385 2.49324 17.9385C1.39236 17.9385 0.499916 18.8309 0.499916 19.9318Z" fill="black"/>
<path d="M18.6352 37.9463C18.6352 39.0471 19.5276 39.9395 20.6284 39.9395C21.7292 39.9395 22.6216 39.0471 22.6216 37.9463C22.6216 36.8455 21.7292 35.9531 20.6284 35.9531C19.5276 35.9531 18.6352 36.8455 18.6352 37.9463Z" fill="black"/>
</g>
<defs>
<clipPath id="clip0_244_3407">
<rect width="40" height="40" fill="white" transform="translate(40.5) rotate(90)"/>
</clipPath>
</defs>
</svg>
