<svg viewBox="0 0 24 24" fill="none" xmlns="http://www.w3.org/2000/svg">
<path fill-rule="evenodd" clip-rule="evenodd" d="M8.70758 4.70675C6.93572 5.50789 5.50787 6.93574 4.70674 8.7076C3.69726 8.22444 3 7.19334 3 6C3 4.34375 4.34314 3 6 3C7.19367 3 8.22451 3.69746 8.70758 4.70675ZM4.70674 15.2924C3.69726 15.7756 3 16.8067 3 18C3 19.6562 4.34314 21 6 21C7.19367 21 8.22451 20.3025 8.70758 19.2932C6.93572 18.4921 5.50787 17.0643 4.70674 15.2924ZM15.2924 19.2932C15.7755 20.3025 16.8063 21 18 21C19.6569 21 21 19.6562 21 18C21 16.8067 20.3027 15.7756 19.2933 15.2924C18.4921 17.0643 17.0643 18.4921 15.2924 19.2932ZM19.2933 8.7076C20.3027 8.22444 21 7.19334 21 6C21 4.34375 19.6569 3 18 3C16.8063 3 15.7755 3.69746 15.2924 4.70675C17.0643 5.50789 18.4921 6.93574 19.2933 8.7076Z" fill="white"/>
<path fill-rule="evenodd" clip-rule="evenodd" d="M9 6C9 7.65625 7.65686 9 6 9C5.53691 9 5.09834 8.89503 4.70674 8.7076C4.25273 9.71174 4 10.8264 4 12C4 13.1736 4.25273 14.2883 4.70674 15.2924C5.09834 15.105 5.53691 15 6 15C7.65686 15 9 16.3438 9 18C9 18.463 8.89503 18.9016 8.70758 19.2933C9.71172 19.7473 10.8263 20 12 20C13.1737 20 14.2883 19.7473 15.2924 19.2933C15.105 18.9016 15 18.463 15 18C15 16.3438 16.3431 15 18 15C18.4631 15 18.9017 15.105 19.2933 15.2924C19.7473 14.2883 20 13.1736 20 12C20 10.8264 19.7473 9.71174 19.2933 8.7076C18.9017 8.89503 18.4631 9 18 9C16.3431 9 15 7.65625 15 6C15 5.53698 15.105 5.09839 15.2924 4.70675C14.2883 4.25273 13.1737 4 12 4C10.8263 4 9.71172 4.25273 8.70758 4.70675C8.89503 5.09839 9 5.53698 9 6Z" fill="white"/>
</svg>
