<svg width="24" height="24" viewBox="0 0 24 24" fill="none" xmlns="http://www.w3.org/2000/svg">
<rect width="24" height="24" rx="6" fill="white" fill-opacity="0.1"/>
<path fill-rule="evenodd" clip-rule="evenodd" d="M12.0556 5.38867C8.37558 5.38867 5.38892 8.37534 5.38892 12.0553C5.38892 15.7353 8.37558 18.722 12.0556 18.722C15.7356 18.722 18.7222 15.7353 18.7222 12.0553C18.7222 8.37534 15.7356 5.38867 12.0556 5.38867ZM12.7222 16.0553V14.722H11.3889V16.0553H12.7222ZM9.38892 10.722C9.38892 9.24867 10.5823 8.05534 12.0556 8.05534C13.5289 8.05534 14.7222 9.24867 14.7222 10.722C14.7222 11.5773 14.1956 12.0375 13.6828 12.4857C13.1963 12.9109 12.7222 13.3251 12.7222 14.0553H11.3889C11.3889 12.8412 12.017 12.3597 12.5692 11.9365C13.0024 11.6044 13.3889 11.3082 13.3889 10.722C13.3889 9.98867 12.7889 9.38867 12.0556 9.38867C11.3223 9.38867 10.7222 9.98867 10.7222 10.722H9.38892Z" fill="white"/>
</svg>
