<svg  viewBox="0 0 60 60" fill="none" xmlns="http://www.w3.org/2000/svg">
<g clip-path="url(#clip0_244_4469)">
<circle cx="30" cy="30" r="30" fill="url(#paint0_linear_244_4469)"/>
<g filter="url(#filter0_bd_244_4469)">
<path d="M0 30C3.81823e-07 25.6325 0.953639 21.3176 2.79429 17.3569C4.63493 13.3961 7.3182 9.88505 10.6566 7.06895C13.995 4.25284 17.9081 2.19964 22.1223 1.05277C26.3366 -0.0941011 30.7505 -0.306966 35.0555 0.429044C39.3606 1.16505 43.4531 2.83219 47.047 5.31397C50.6409 7.79575 53.6496 11.0323 55.8628 14.7975C58.0761 18.5628 59.4405 22.7659 59.8608 27.1131C60.2811 31.4604 59.7471 35.847 58.2961 39.9665L30 30L0 30Z" fill="url(#paint1_linear_244_4469)" shape-rendering="crispEdges"/>
</g>
<g filter="url(#filter1_d_244_4469)">
<path d="M0 29H34V29.9455L0 30L0 29Z" fill="white"/>
</g>
<g clip-path="url(#clip1_244_4469)">
<path fill-rule="evenodd" clip-rule="evenodd" d="M41.5664 29.4928C43.0581 30.8083 44 32.7319 44 34.8763C44 38.7687 40.8997 41.9363 37.0338 42.048V42.0537H35.0141V48.9998H31.4251V38.4658H36.8227C38.8045 38.4658 40.4112 36.8593 40.4112 34.8773C40.4112 32.9001 38.8114 31.2972 36.8356 31.2893H24.3729V27.6996H36.8217C38.8035 27.6996 40.4103 26.0932 40.4103 24.1112C40.4103 22.1337 38.8105 20.5311 36.8347 20.5234H31.4254V20.5222V10.0007H35.0144V16.9343H37.0341V16.9395C40.8999 17.0513 44.0002 20.2181 44.0002 24.1109C44.0002 26.2556 43.0581 28.1785 41.5667 29.493L41.5664 29.4928ZM20.6374 38.5612H27.8143L27.7783 49.0005H24.1915V42.1304L17 42.1523V16.9102L24.1915 16.8759V10.0005H27.7783L27.8143 20.4456H20.6374V38.5621V38.5612Z" fill="white"/>
</g>
</g>
<defs>
<filter id="filter0_bd_244_4469" x="-90" y="-90" width="240" height="219.966" filterUnits="userSpaceOnUse" color-interpolation-filters="sRGB">
<feFlood flood-opacity="0" result="BackgroundImageFix"/>
<feGaussianBlur in="BackgroundImageFix" stdDeviation="45"/>
<feComposite in2="SourceAlpha" operator="in" result="effect1_backgroundBlur_244_4469"/>
<feColorMatrix in="SourceAlpha" type="matrix" values="0 0 0 0 0 0 0 0 0 0 0 0 0 0 0 0 0 0 127 0" result="hardAlpha"/>
<feOffset/>
<feGaussianBlur stdDeviation="3"/>
<feComposite in2="hardAlpha" operator="out"/>
<feColorMatrix type="matrix" values="0 0 0 0 1 0 0 0 0 1 0 0 0 0 1 0 0 0 1 0"/>
<feBlend mode="normal" in2="effect1_backgroundBlur_244_4469" result="effect2_dropShadow_244_4469"/>
<feBlend mode="normal" in="SourceGraphic" in2="effect2_dropShadow_244_4469" result="shape"/>
</filter>
<filter id="filter1_d_244_4469" x="-4" y="24" width="42" height="9" filterUnits="userSpaceOnUse" color-interpolation-filters="sRGB">
<feFlood flood-opacity="0" result="BackgroundImageFix"/>
<feColorMatrix in="SourceAlpha" type="matrix" values="0 0 0 0 0 0 0 0 0 0 0 0 0 0 0 0 0 0 127 0" result="hardAlpha"/>
<feOffset dy="-1"/>
<feGaussianBlur stdDeviation="2"/>
<feComposite in2="hardAlpha" operator="out"/>
<feColorMatrix type="matrix" values="0 0 0 0 1 0 0 0 0 1 0 0 0 0 1 0 0 0 1 0"/>
<feBlend mode="normal" in2="BackgroundImageFix" result="effect1_dropShadow_244_4469"/>
<feBlend mode="normal" in="SourceGraphic" in2="effect1_dropShadow_244_4469" result="shape"/>
</filter>
<linearGradient id="paint0_linear_244_4469" x1="30" y1="0" x2="30" y2="60" gradientUnits="userSpaceOnUse">
<stop stop-color="#8BAAFF"/>
<stop offset="1" stop-color="#4A6DFB"/>
</linearGradient>
<linearGradient id="paint1_linear_244_4469" x1="-1.17067e-06" y1="30" x2="60" y2="39" gradientUnits="userSpaceOnUse">
<stop stop-color="white"/>
<stop offset="0.491882" stop-color="white" stop-opacity="0.508118"/>
<stop offset="0.572024" stop-color="white" stop-opacity="0.427976"/>
<stop offset="1" stop-color="white" stop-opacity="0"/>
</linearGradient>
<clipPath id="clip0_244_4469">
<rect width="60" height="60" rx="30" fill="white"/>
</clipPath>
<clipPath id="clip1_244_4469">
<rect x="17" y="10.0005" width="27" height="39" fill="white"/>
</clipPath>
</defs>
</svg>
