<svg  viewBox="0 0 227 60" fill="none" xmlns="http://www.w3.org/2000/svg">
<g clip-path="url(#clip0_194_312)">
<circle cx="30" cy="30" r="30" fill="url(#paint0_linear_194_312)"/>
<g filter="url(#filter0_bd_194_312)">
<path d="M0 30C3.81823e-07 25.6325 0.953639 21.3176 2.79429 17.3569C4.63493 13.3961 7.3182 9.88505 10.6566 7.06895C13.995 4.25284 17.9081 2.19964 22.1223 1.05277C26.3366 -0.0941011 30.7505 -0.306966 35.0555 0.429044C39.3606 1.16505 43.4531 2.83219 47.047 5.31397C50.6409 7.79575 53.6496 11.0323 55.8628 14.7975C58.0761 18.5628 59.4405 22.7659 59.8608 27.1131C60.2811 31.4604 59.7471 35.847 58.2961 39.9665L30 30L0 30Z" fill="url(#paint1_linear_194_312)" shape-rendering="crispEdges"/>
</g>
<g filter="url(#filter1_d_194_312)">
<path d="M0 29H34V29.9455L0 30L0 29Z" fill="white"/>
</g>
<g clip-path="url(#clip1_194_312)">
<path fill-rule="evenodd" clip-rule="evenodd" d="M41.5664 29.4928C43.0581 30.8083 44 32.7319 44 34.8763C44 38.7687 40.8997 41.9363 37.0338 42.048V42.0537H35.0141V48.9998H31.4251V38.4658H36.8227C38.8045 38.4658 40.4112 36.8593 40.4112 34.8773C40.4112 32.9001 38.8114 31.2972 36.8356 31.2893H24.3729V27.6996H36.8217C38.8035 27.6996 40.4103 26.0932 40.4103 24.1112C40.4103 22.1337 38.8105 20.5311 36.8347 20.5234H31.4254V20.5222V10.0007H35.0144V16.9343H37.0341V16.9395C40.8999 17.0513 44.0002 20.2181 44.0002 24.1109C44.0002 26.2556 43.0581 28.1785 41.5667 29.493L41.5664 29.4928ZM20.6374 38.5612H27.8143L27.7783 49.0005H24.1915V42.1304L17 42.1523V16.9102L24.1915 16.8759V10.0005H27.7783L27.8143 20.4456H20.6374V38.5621V38.5612Z" fill="white"/>
</g>
</g>
<path d="M74.552 30.5L80.696 13.7H84.152L90.296 30.5H87.032L85.688 26.612H79.136L77.768 30.5H74.552ZM79.976 24.212H84.848L82.4 17.228L79.976 24.212ZM105.396 30.788C104.164 30.788 103.076 30.58 102.132 30.164C101.188 29.732 100.444 29.124 99.9001 28.34C99.3561 27.54 99.0761 26.572 99.0601 25.436H102.3C102.332 26.22 102.612 26.884 103.14 27.428C103.684 27.956 104.428 28.22 105.372 28.22C106.188 28.22 106.836 28.028 107.316 27.644C107.796 27.244 108.036 26.716 108.036 26.06C108.036 25.372 107.82 24.836 107.388 24.452C106.972 24.068 106.412 23.756 105.708 23.516C105.004 23.276 104.252 23.02 103.452 22.748C102.156 22.3 101.164 21.724 100.476 21.02C99.8041 20.316 99.4681 19.38 99.4681 18.212C99.4521 17.22 99.6841 16.372 100.164 15.668C100.66 14.948 101.332 14.396 102.18 14.012C103.028 13.612 104.004 13.412 105.108 13.412C106.228 13.412 107.212 13.612 108.06 14.012C108.924 14.412 109.596 14.972 110.076 15.692C110.572 16.412 110.836 17.268 110.868 18.26H107.58C107.564 17.668 107.332 17.148 106.884 16.7C106.452 16.236 105.844 16.004 105.06 16.004C104.388 15.988 103.82 16.156 103.356 16.508C102.908 16.844 102.684 17.34 102.684 17.996C102.684 18.556 102.86 19.004 103.212 19.34C103.564 19.66 104.044 19.932 104.652 20.156C105.26 20.38 105.956 20.62 106.74 20.876C107.572 21.164 108.332 21.5 109.02 21.884C109.708 22.268 110.26 22.78 110.676 23.42C111.092 24.044 111.3 24.852 111.3 25.844C111.3 26.724 111.076 27.54 110.628 28.292C110.18 29.044 109.516 29.652 108.636 30.116C107.756 30.564 106.676 30.788 105.396 30.788ZM121.18 30.5V13.7H132.148V16.172H124.252V20.78H131.428V23.18H124.252V28.028H132.148V30.5H121.18ZM142.255 30.5V13.7H148.999C150.743 13.7 152.071 14.108 152.983 14.924C153.911 15.724 154.375 16.756 154.375 18.02C154.375 19.076 154.087 19.924 153.511 20.564C152.951 21.188 152.263 21.612 151.447 21.836C152.407 22.028 153.199 22.508 153.823 23.276C154.447 24.028 154.759 24.908 154.759 25.916C154.759 27.244 154.279 28.34 153.319 29.204C152.359 30.068 150.999 30.5 149.239 30.5H142.255ZM145.327 20.756H148.543C149.407 20.756 150.071 20.556 150.535 20.156C150.999 19.756 151.231 19.188 151.231 18.452C151.231 17.748 150.999 17.196 150.535 16.796C150.087 16.38 149.407 16.172 148.495 16.172H145.327V20.756ZM145.327 28.004H148.759C149.671 28.004 150.375 27.796 150.871 27.38C151.383 26.948 151.639 26.348 151.639 25.58C151.639 24.796 151.375 24.18 150.847 23.732C150.319 23.284 149.607 23.06 148.711 23.06H145.327V28.004ZM163.375 30.5L169.519 13.7H172.975L179.119 30.5H175.855L174.511 26.612H167.959L166.591 30.5H163.375ZM168.799 24.212H173.671L171.223 17.228L168.799 24.212ZM188.484 30.5V13.7H191.556L199.452 25.532V13.7H202.524V30.5H199.452L191.556 18.692V30.5H188.484ZM212.98 30.5V13.7H216.052V20.492L222.268 13.7H226.06L219.868 20.372L226.228 30.5H222.46L217.66 22.724L216.052 24.476V30.5H212.98Z" fill="#2D2D2D"/>
<path d="M74.9492 50.5V42.0977H77.8613C78.5176 42.0977 79.0781 42.3047 79.543 42.7188C80.0078 43.1289 80.2402 43.623 80.2402 44.2012C80.2402 44.6504 80.1035 45.0527 79.8301 45.4082C79.5566 45.7637 79.2168 45.9805 78.8105 46.0586C79.3379 46.1133 79.7812 46.3438 80.1406 46.75C80.5039 47.1562 80.6855 47.6348 80.6855 48.1855C80.6855 48.8301 80.4453 49.377 79.9648 49.8262C79.4883 50.2754 78.9082 50.5 78.2246 50.5H74.9492ZM75.8457 45.7598H77.8379C78.252 45.7598 78.6035 45.6211 78.8926 45.3438C79.1816 45.0625 79.3262 44.7207 79.3262 44.3184C79.3262 43.9434 79.1797 43.625 78.8867 43.3633C78.5977 43.0977 78.248 42.9648 77.8379 42.9648H75.8457V45.7598ZM75.8457 49.6387H78.1777C78.6309 49.6387 79.0078 49.4883 79.3086 49.1875C79.6094 48.8867 79.7598 48.5156 79.7598 48.0742C79.7598 47.6367 79.6074 47.2676 79.3027 46.9668C79.002 46.666 78.6309 46.5156 78.1895 46.5156H75.8457V49.6387ZM86.3691 44.6699H87.248V50.5H86.3691V49.5859C86.1855 49.8945 85.9062 50.1445 85.5312 50.3359C85.1562 50.5234 84.7559 50.6172 84.3301 50.6172C83.6074 50.6172 83.0254 50.3809 82.584 49.9082C82.1465 49.4316 81.9277 48.8047 81.9277 48.0273V44.6699H82.8066V47.9102C82.8066 48.4727 82.9629 48.9238 83.2754 49.2637C83.5879 49.5996 84 49.7676 84.5117 49.7676C84.8984 49.7676 85.2598 49.6738 85.5957 49.4863C85.9316 49.2949 86.1895 49.041 86.3691 48.7246V44.6699ZM89.3691 42.1211C89.5371 42.1211 89.6855 42.1836 89.8145 42.3086C89.9434 42.4336 90.0078 42.5801 90.0078 42.748C90.0078 42.9199 89.9434 43.0703 89.8145 43.1992C89.6855 43.3242 89.5371 43.3867 89.3691 43.3867C89.1973 43.3867 89.0508 43.3242 88.9297 43.1992C88.8086 43.0742 88.748 42.9238 88.748 42.748C88.748 42.5801 88.8086 42.4336 88.9297 42.3086C89.0508 42.1836 89.1973 42.1211 89.3691 42.1211ZM88.9238 44.6699H89.8027V50.5H88.9238V44.6699ZM92.3926 42.0977V50.5H91.5137V42.0977H92.3926ZM98.5039 42.0977H99.377V50.5H98.5039V49.5859C98.3359 49.8789 98.0586 50.125 97.6719 50.3242C97.2852 50.5195 96.8828 50.6172 96.4648 50.6172C95.6367 50.6172 94.9434 50.3262 94.3848 49.7441C93.8262 49.1582 93.5469 48.4336 93.5469 47.5703C93.5469 46.7109 93.8262 45.9922 94.3848 45.4141C94.9434 44.8359 95.6367 44.5469 96.4648 44.5469C96.8867 44.5469 97.291 44.6465 97.6777 44.8457C98.0684 45.041 98.3438 45.2852 98.5039 45.5781V42.0977ZM96.6055 49.791C96.9883 49.791 97.3574 49.6914 97.7129 49.4922C98.0684 49.293 98.332 49.041 98.5039 48.7363V46.4453C98.3359 46.125 98.0742 45.8652 97.7188 45.666C97.3672 45.4629 96.9961 45.3613 96.6055 45.3613C95.9805 45.3613 95.457 45.5723 95.0352 45.9941C94.6172 46.4121 94.4082 46.9375 94.4082 47.5703C94.4082 48.2031 94.6172 48.7324 95.0352 49.1582C95.457 49.5801 95.9805 49.791 96.6055 49.791ZM101.498 42.1211C101.666 42.1211 101.814 42.1836 101.943 42.3086C102.072 42.4336 102.137 42.5801 102.137 42.748C102.137 42.9199 102.072 43.0703 101.943 43.1992C101.814 43.3242 101.666 43.3867 101.498 43.3867C101.326 43.3867 101.18 43.3242 101.059 43.1992C100.938 43.0742 100.877 42.9238 100.877 42.748C100.877 42.5801 100.938 42.4336 101.059 42.3086C101.18 42.1836 101.326 42.1211 101.498 42.1211ZM101.053 44.6699H101.932V50.5H101.053V44.6699ZM106.525 44.5469C107.252 44.5469 107.834 44.7832 108.271 45.2559C108.709 45.7285 108.928 46.3574 108.928 47.1426V50.5H108.049V47.2598C108.049 46.6973 107.893 46.248 107.58 45.9121C107.268 45.5723 106.855 45.4023 106.344 45.4023C105.957 45.4023 105.594 45.4961 105.254 45.6836C104.918 45.8672 104.662 46.1172 104.486 46.4336V50.5H103.607V44.6699H104.486V45.5781C104.678 45.2617 104.957 45.0117 105.324 44.8281C105.695 44.6406 106.096 44.5469 106.525 44.5469ZM115.215 44.6582H116.088V50.3184C116.088 51.1074 115.828 51.748 115.309 52.2402C114.793 52.7363 114.125 52.9844 113.305 52.9844C112.77 52.9844 112.264 52.8906 111.787 52.7031C111.311 52.5195 110.953 52.2695 110.715 51.9531L111.184 51.3613C111.391 51.6191 111.68 51.8223 112.051 51.9707C112.426 52.1191 112.836 52.1934 113.281 52.1934C113.848 52.1934 114.311 52.0156 114.67 51.6602C115.033 51.3086 115.215 50.8574 115.215 50.3066V49.5273C115.047 49.8164 114.77 50.0586 114.383 50.2539C113.996 50.4492 113.594 50.5469 113.176 50.5469C112.348 50.5469 111.654 50.2578 111.096 49.6797C110.537 49.1016 110.258 48.3867 110.258 47.5352C110.258 46.6875 110.537 45.9766 111.096 45.4023C111.654 44.8242 112.348 44.5352 113.176 44.5352C113.598 44.5352 114.002 44.6328 114.389 44.8281C114.775 45.0234 115.051 45.2656 115.215 45.5547V44.6582ZM113.316 49.7324C113.699 49.7324 114.068 49.6328 114.424 49.4336C114.779 49.2344 115.043 48.9824 115.215 48.6777V46.4219C115.047 46.1094 114.785 45.8535 114.43 45.6543C114.074 45.4512 113.703 45.3496 113.316 45.3496C112.691 45.3496 112.168 45.5566 111.746 45.9707C111.328 46.3848 111.119 46.9062 111.119 47.5352C111.119 48.1641 111.328 48.6875 111.746 49.1055C112.168 49.5234 112.691 49.7324 113.316 49.7324ZM123.371 42.0977C123.945 42.0977 124.486 42.2031 124.994 42.4141C125.506 42.6211 125.945 42.9082 126.312 43.2754C126.68 43.6387 126.969 44.0801 127.18 44.5996C127.395 45.1152 127.502 45.6699 127.502 46.2637C127.502 46.8574 127.395 47.418 127.18 47.9453C126.969 48.4688 126.68 48.918 126.312 49.293C125.945 49.6641 125.506 49.959 124.994 50.1777C124.486 50.3926 123.945 50.5 123.371 50.5H120.77V42.0977H123.371ZM123.418 49.6387C124.316 49.6387 125.064 49.3184 125.662 48.6777C126.264 48.0332 126.564 47.2285 126.564 46.2637C126.564 45.3066 126.266 44.5176 125.668 43.8965C125.074 43.2754 124.324 42.9648 123.418 42.9648H121.666V49.6387H123.418ZM134.158 47.3184C134.158 47.4043 134.15 47.5254 134.135 47.6816H129.26C129.295 48.3262 129.51 48.8457 129.904 49.2402C130.303 49.6309 130.805 49.8262 131.41 49.8262C131.832 49.8262 132.211 49.7402 132.547 49.5684C132.887 49.3965 133.141 49.1621 133.309 48.8652L134 49.3105C133.777 49.7129 133.434 50.0312 132.969 50.2656C132.504 50.5 131.977 50.6172 131.387 50.6172C130.98 50.6172 130.594 50.5391 130.227 50.3828C129.863 50.2266 129.547 50.0137 129.277 49.7441C129.012 49.4746 128.801 49.1504 128.645 48.7715C128.488 48.3887 128.41 47.9805 128.41 47.5469C128.41 46.707 128.697 45.998 129.271 45.4199C129.846 44.8379 130.547 44.5469 131.375 44.5469C132.16 44.5469 132.82 44.8145 133.355 45.3496C133.891 45.8809 134.158 46.5371 134.158 47.3184ZM129.312 46.9961H133.256C133.221 46.4961 133.021 46.0859 132.658 45.7656C132.299 45.4414 131.859 45.2793 131.34 45.2793C130.828 45.2793 130.387 45.4375 130.016 45.7539C129.648 46.0664 129.414 46.4805 129.312 46.9961ZM135.594 42.0977H140.287V42.9648H136.49V45.6777H139.877V46.5391H136.49V50.5H135.594V42.0977ZM141.729 42.1211C141.896 42.1211 142.045 42.1836 142.174 42.3086C142.303 42.4336 142.367 42.5801 142.367 42.748C142.367 42.9199 142.303 43.0703 142.174 43.1992C142.045 43.3242 141.896 43.3867 141.729 43.3867C141.557 43.3867 141.41 43.3242 141.289 43.1992C141.168 43.0742 141.107 42.9238 141.107 42.748C141.107 42.5801 141.168 42.4336 141.289 42.3086C141.41 42.1836 141.557 42.1211 141.729 42.1211ZM141.283 44.6699H142.162V50.5H141.283V44.6699ZM145.197 49.334L144.395 51.7715H143.697L144.213 49.334H145.197ZM149.738 50.5V42.0977H152.65C153.307 42.0977 153.867 42.3047 154.332 42.7188C154.797 43.1289 155.029 43.623 155.029 44.2012C155.029 44.6504 154.893 45.0527 154.619 45.4082C154.346 45.7637 154.006 45.9805 153.6 46.0586C154.127 46.1133 154.57 46.3438 154.93 46.75C155.293 47.1562 155.475 47.6348 155.475 48.1855C155.475 48.8301 155.234 49.377 154.754 49.8262C154.277 50.2754 153.697 50.5 153.014 50.5H149.738ZM150.635 45.7598H152.627C153.041 45.7598 153.393 45.6211 153.682 45.3438C153.971 45.0625 154.115 44.7207 154.115 44.3184C154.115 43.9434 153.969 43.625 153.676 43.3633C153.387 43.0977 153.037 42.9648 152.627 42.9648H150.635V45.7598ZM150.635 49.6387H152.967C153.42 49.6387 153.797 49.4883 154.098 49.1875C154.398 48.8867 154.549 48.5156 154.549 48.0742C154.549 47.6367 154.396 47.2676 154.092 46.9668C153.791 46.666 153.42 46.5156 152.979 46.5156H150.635V49.6387ZM161.158 44.6699H162.037V50.5H161.158V49.5859C160.975 49.8945 160.695 50.1445 160.32 50.3359C159.945 50.5234 159.545 50.6172 159.119 50.6172C158.396 50.6172 157.814 50.3809 157.373 49.9082C156.936 49.4316 156.717 48.8047 156.717 48.0273V44.6699H157.596V47.9102C157.596 48.4727 157.752 48.9238 158.064 49.2637C158.377 49.5996 158.789 49.7676 159.301 49.7676C159.688 49.7676 160.049 49.6738 160.385 49.4863C160.721 49.2949 160.979 49.041 161.158 48.7246V44.6699ZM164.158 42.1211C164.326 42.1211 164.475 42.1836 164.604 42.3086C164.732 42.4336 164.797 42.5801 164.797 42.748C164.797 42.9199 164.732 43.0703 164.604 43.1992C164.475 43.3242 164.326 43.3867 164.158 43.3867C163.986 43.3867 163.84 43.3242 163.719 43.1992C163.598 43.0742 163.537 42.9238 163.537 42.748C163.537 42.5801 163.598 42.4336 163.719 42.3086C163.84 42.1836 163.986 42.1211 164.158 42.1211ZM163.713 44.6699H164.592V50.5H163.713V44.6699ZM167.182 42.0977V50.5H166.303V42.0977H167.182ZM173.293 42.0977H174.166V50.5H173.293V49.5859C173.125 49.8789 172.848 50.125 172.461 50.3242C172.074 50.5195 171.672 50.6172 171.254 50.6172C170.426 50.6172 169.732 50.3262 169.174 49.7441C168.615 49.1582 168.336 48.4336 168.336 47.5703C168.336 46.7109 168.615 45.9922 169.174 45.4141C169.732 44.8359 170.426 44.5469 171.254 44.5469C171.676 44.5469 172.08 44.6465 172.467 44.8457C172.857 45.041 173.133 45.2852 173.293 45.5781V42.0977ZM171.395 49.791C171.777 49.791 172.146 49.6914 172.502 49.4922C172.857 49.293 173.121 49.041 173.293 48.7363V46.4453C173.125 46.125 172.863 45.8652 172.508 45.666C172.156 45.4629 171.785 45.3613 171.395 45.3613C170.77 45.3613 170.246 45.5723 169.824 45.9941C169.406 46.4121 169.197 46.9375 169.197 47.5703C169.197 48.2031 169.406 48.7324 169.824 49.1582C170.246 49.5801 170.77 49.791 171.395 49.791ZM176.287 42.1211C176.455 42.1211 176.604 42.1836 176.732 42.3086C176.861 42.4336 176.926 42.5801 176.926 42.748C176.926 42.9199 176.861 43.0703 176.732 43.1992C176.604 43.3242 176.455 43.3867 176.287 43.3867C176.115 43.3867 175.969 43.3242 175.848 43.1992C175.727 43.0742 175.666 42.9238 175.666 42.748C175.666 42.5801 175.727 42.4336 175.848 42.3086C175.969 42.1836 176.115 42.1211 176.287 42.1211ZM175.842 44.6699H176.721V50.5H175.842V44.6699ZM181.314 44.5469C182.041 44.5469 182.623 44.7832 183.061 45.2559C183.498 45.7285 183.717 46.3574 183.717 47.1426V50.5H182.838V47.2598C182.838 46.6973 182.682 46.248 182.369 45.9121C182.057 45.5723 181.645 45.4023 181.133 45.4023C180.746 45.4023 180.383 45.4961 180.043 45.6836C179.707 45.8672 179.451 46.1172 179.275 46.4336V50.5H178.396V44.6699H179.275V45.5781C179.467 45.2617 179.746 45.0117 180.113 44.8281C180.484 44.6406 180.885 44.5469 181.314 44.5469ZM190.004 44.6582H190.877V50.3184C190.877 51.1074 190.617 51.748 190.098 52.2402C189.582 52.7363 188.914 52.9844 188.094 52.9844C187.559 52.9844 187.053 52.8906 186.576 52.7031C186.1 52.5195 185.742 52.2695 185.504 51.9531L185.973 51.3613C186.18 51.6191 186.469 51.8223 186.84 51.9707C187.215 52.1191 187.625 52.1934 188.07 52.1934C188.637 52.1934 189.1 52.0156 189.459 51.6602C189.822 51.3086 190.004 50.8574 190.004 50.3066V49.5273C189.836 49.8164 189.559 50.0586 189.172 50.2539C188.785 50.4492 188.383 50.5469 187.965 50.5469C187.137 50.5469 186.443 50.2578 185.885 49.6797C185.326 49.1016 185.047 48.3867 185.047 47.5352C185.047 46.6875 185.326 45.9766 185.885 45.4023C186.443 44.8242 187.137 44.5352 187.965 44.5352C188.387 44.5352 188.791 44.6328 189.178 44.8281C189.564 45.0234 189.84 45.2656 190.004 45.5547V44.6582ZM188.105 49.7324C188.488 49.7324 188.857 49.6328 189.213 49.4336C189.568 49.2344 189.832 48.9824 190.004 48.6777V46.4219C189.836 46.1094 189.574 45.8535 189.219 45.6543C188.863 45.4512 188.492 45.3496 188.105 45.3496C187.48 45.3496 186.957 45.5566 186.535 45.9707C186.117 46.3848 185.908 46.9062 185.908 47.5352C185.908 48.1641 186.117 48.6875 186.535 49.1055C186.957 49.5234 187.48 49.7324 188.105 49.7324ZM201.377 42.0977V42.9648H198.617V50.5H197.715V42.9648H194.955V42.0977H201.377ZM204.213 44.5469C204.424 44.5469 204.629 44.5762 204.828 44.6348L204.781 45.4609C204.59 45.3867 204.381 45.3496 204.154 45.3496C203.889 45.3496 203.611 45.4531 203.322 45.6602C203.033 45.8633 202.799 46.1367 202.619 46.4805V50.5H201.74V44.6699H202.619V45.5898C202.775 45.2773 203.004 45.0254 203.305 44.834C203.605 44.6426 203.908 44.5469 204.213 44.5469ZM210.283 44.6699H211.162V50.5H210.283V49.5859C210.1 49.8945 209.82 50.1445 209.445 50.3359C209.07 50.5234 208.67 50.6172 208.244 50.6172C207.521 50.6172 206.939 50.3809 206.498 49.9082C206.061 49.4316 205.842 48.8047 205.842 48.0273V44.6699H206.721V47.9102C206.721 48.4727 206.877 48.9238 207.189 49.2637C207.502 49.5996 207.914 49.7676 208.426 49.7676C208.812 49.7676 209.174 49.6738 209.51 49.4863C209.846 49.2949 210.104 49.041 210.283 48.7246V44.6699ZM214.748 50.6172C214.311 50.6172 213.879 50.541 213.453 50.3887C213.027 50.2363 212.676 50.0332 212.398 49.7793L212.791 49.1172C213.018 49.3438 213.312 49.5293 213.676 49.6738C214.039 49.8184 214.393 49.8906 214.736 49.8906C215.131 49.8906 215.449 49.8008 215.691 49.6211C215.934 49.4414 216.055 49.2148 216.055 48.9414C216.055 48.7383 215.99 48.5703 215.861 48.4375C215.732 48.3008 215.564 48.1973 215.357 48.127C215.154 48.0527 214.928 47.9883 214.678 47.9336C214.432 47.8789 214.184 47.8164 213.934 47.7461C213.688 47.6719 213.461 47.582 213.254 47.4766C213.051 47.3672 212.885 47.209 212.756 47.002C212.627 46.7949 212.562 46.5449 212.562 46.252C212.562 45.7441 212.76 45.334 213.154 45.0215C213.549 44.7051 214.064 44.5469 214.701 44.5469C215.107 44.5469 215.494 44.6133 215.861 44.7461C216.232 44.875 216.529 45.0605 216.752 45.3027L216.342 45.9648C216.15 45.7578 215.891 45.5918 215.562 45.4668C215.238 45.3418 214.928 45.2793 214.631 45.2793C214.271 45.2793 213.982 45.3633 213.764 45.5312C213.549 45.6953 213.441 45.916 213.441 46.1934C213.441 46.3809 213.506 46.5371 213.635 46.6621C213.764 46.7832 213.93 46.8789 214.133 46.9492C214.34 47.0156 214.568 47.0781 214.818 47.1367C215.068 47.1914 215.318 47.2578 215.568 47.3359C215.818 47.4141 216.045 47.5117 216.248 47.6289C216.455 47.7461 216.623 47.9141 216.752 48.1328C216.881 48.3516 216.945 48.6133 216.945 48.918C216.945 49.4141 216.74 49.8223 216.33 50.1426C215.924 50.459 215.396 50.6172 214.748 50.6172ZM221.088 49.6973L221.152 50.4648C220.984 50.5273 220.799 50.5586 220.596 50.5586C219.994 50.5586 219.508 50.373 219.137 50.002C218.766 49.6309 218.58 49.1172 218.58 48.4609V45.4844H217.42V44.6699H218.58V43.0586H219.447V44.6699H221.088V45.4844H219.447V48.4258C219.447 48.8398 219.564 49.166 219.799 49.4043C220.037 49.6387 220.34 49.7559 220.707 49.7559C220.844 49.7559 220.971 49.7363 221.088 49.6973Z" fill="#2D2D2D"/>
<defs>
<filter id="filter0_bd_194_312" x="-90" y="-90" width="240" height="219.966" filterUnits="userSpaceOnUse" color-interpolation-filters="sRGB">
<feFlood flood-opacity="0" result="BackgroundImageFix"/>
<feGaussianBlur in="BackgroundImageFix" stdDeviation="45"/>
<feComposite in2="SourceAlpha" operator="in" result="effect1_backgroundBlur_194_312"/>
<feColorMatrix in="SourceAlpha" type="matrix" values="0 0 0 0 0 0 0 0 0 0 0 0 0 0 0 0 0 0 127 0" result="hardAlpha"/>
<feOffset/>
<feGaussianBlur stdDeviation="3"/>
<feComposite in2="hardAlpha" operator="out"/>
<feColorMatrix type="matrix" values="0 0 0 0 1 0 0 0 0 1 0 0 0 0 1 0 0 0 1 0"/>
<feBlend mode="normal" in2="effect1_backgroundBlur_194_312" result="effect2_dropShadow_194_312"/>
<feBlend mode="normal" in="SourceGraphic" in2="effect2_dropShadow_194_312" result="shape"/>
</filter>
<filter id="filter1_d_194_312" x="-4" y="24" width="42" height="9" filterUnits="userSpaceOnUse" color-interpolation-filters="sRGB">
<feFlood flood-opacity="0" result="BackgroundImageFix"/>
<feColorMatrix in="SourceAlpha" type="matrix" values="0 0 0 0 0 0 0 0 0 0 0 0 0 0 0 0 0 0 127 0" result="hardAlpha"/>
<feOffset dy="-1"/>
<feGaussianBlur stdDeviation="2"/>
<feComposite in2="hardAlpha" operator="out"/>
<feColorMatrix type="matrix" values="0 0 0 0 1 0 0 0 0 1 0 0 0 0 1 0 0 0 1 0"/>
<feBlend mode="normal" in2="BackgroundImageFix" result="effect1_dropShadow_194_312"/>
<feBlend mode="normal" in="SourceGraphic" in2="effect1_dropShadow_194_312" result="shape"/>
</filter>
<linearGradient id="paint0_linear_194_312" x1="30" y1="0" x2="30" y2="60" gradientUnits="userSpaceOnUse">
<stop stop-color="#8BAAFF"/>
<stop offset="1" stop-color="#4A6DFB"/>
</linearGradient>
<linearGradient id="paint1_linear_194_312" x1="-1.17067e-06" y1="30" x2="60" y2="39" gradientUnits="userSpaceOnUse">
<stop stop-color="white"/>
<stop offset="0.491882" stop-color="white" stop-opacity="0.508118"/>
<stop offset="0.572024" stop-color="white" stop-opacity="0.427976"/>
<stop offset="1" stop-color="white" stop-opacity="0"/>
</linearGradient>
<clipPath id="clip0_194_312">
<rect width="60" height="60" rx="30" fill="white"/>
</clipPath>
<clipPath id="clip1_194_312">
<rect x="17" y="10.0005" width="27" height="39" fill="white"/>
</clipPath>
</defs>
</svg>
