<svg width="139" height="36" viewBox="0 0 139 36" fill="none" xmlns="http://www.w3.org/2000/svg">
<g clip-path="url(#clip0_294_1066)">
<circle cx="18" cy="18" r="18" fill="url(#paint0_linear_294_1066)"/>
<g filter="url(#filter0_b_294_1066)">
<path d="M0 18C2.29094e-07 15.3795 0.572183 12.7906 1.67657 10.4141C2.78096 8.03767 4.39092 5.93103 6.39397 4.24137C8.39701 2.55171 10.7448 1.31978 13.2734 0.63166C15.802 -0.0564607 18.4503 -0.18418 21.0333 0.257426C23.6164 0.699032 26.0718 1.69931 28.2282 3.18838C30.3845 4.67745 32.1897 6.61939 33.5177 8.87853C34.8456 11.1377 35.6643 13.6595 35.9165 16.2679C36.1686 18.8762 35.8482 21.5082 34.9777 23.9799L18 18L0 18Z" fill="url(#paint1_linear_294_1066)"/>
</g>
<g filter="url(#filter1_d_294_1066)">
<path d="M0 17.3999H20.4V17.9672L0 17.9999L0 17.3999Z" fill="white"/>
</g>
<path fill-rule="evenodd" clip-rule="evenodd" d="M24.9398 17.6954C25.8348 18.4847 26.4 19.6389 26.4 20.9255C26.4 23.261 24.5397 25.1615 22.2202 25.2285V25.232H21.0084V29.3996H18.855V23.0792H22.0936C23.2826 23.0792 24.2467 22.1153 24.2467 20.9261C24.2467 19.7398 23.2868 18.7781 22.1013 18.7733H14.6237V16.6195H22.093C23.2821 16.6195 24.2461 15.6556 24.2461 14.4664C24.2461 13.28 23.2862 12.3184 22.1007 12.3138H18.8552V12.3131V6.00014H21.0086V10.1603H22.2204V10.1634C24.5399 10.2305 26.4001 12.1305 26.4001 14.4663C26.4001 15.7531 25.8348 16.9068 24.9399 17.6955L24.9398 17.6954ZM12.3824 23.1364H16.6885L16.667 29.4H14.5148V25.2779L10.2 25.2911V10.1458L14.5148 10.1252V6H16.667L16.6885 12.2671H12.3824V23.137V23.1364Z" fill="white"/>
</g>
<path d="M45.4894 18.3877L49.2516 8.10047H51.3678L55.13 18.3877H53.1313L52.3083 16.0069H48.2963L47.4586 18.3877H45.4894ZM48.8107 14.5373H51.794L50.295 10.2608L48.8107 14.5373ZM64.3763 18.564C63.6219 18.564 62.9557 18.4367 62.3776 18.182C61.7996 17.9174 61.344 17.5451 61.0109 17.0651C60.6778 16.5752 60.5064 15.9824 60.4966 15.2868H62.4805C62.5001 15.7669 62.6716 16.1735 62.9949 16.5066C63.328 16.8299 63.7836 16.9916 64.3616 16.9916C64.8613 16.9916 65.2581 16.874 65.552 16.6389C65.8459 16.3939 65.9929 16.0706 65.9929 15.6689C65.9929 15.2476 65.8606 14.9194 65.5961 14.6843C65.3413 14.4492 64.9984 14.2581 64.5674 14.1111C64.1363 13.9642 63.6758 13.8074 63.1859 13.6409C62.3923 13.3666 61.7849 13.0138 61.3636 12.5828C60.9521 12.1517 60.7464 11.5785 60.7464 10.8633C60.7366 10.2559 60.8787 9.73663 61.1726 9.30555C61.4763 8.86466 61.8878 8.52666 62.407 8.29152C62.9263 8.04659 63.5239 7.92412 64.2 7.92412C64.8858 7.92412 65.4883 8.04659 66.0076 8.29152C66.5366 8.53645 66.9481 8.87936 67.242 9.32024C67.5458 9.76112 67.7074 10.2853 67.727 10.8927H65.7136C65.7038 10.5302 65.5618 10.2118 65.2875 9.93747C65.0229 9.65335 64.6506 9.51129 64.1706 9.51129C63.7591 9.50149 63.4113 9.60437 63.1271 9.81991C62.8528 10.0257 62.7157 10.3294 62.7157 10.7311C62.7157 11.074 62.8234 11.3483 63.039 11.554C63.2545 11.75 63.5484 11.9165 63.9207 12.0537C64.293 12.1909 64.7192 12.3378 65.1993 12.4946C65.7087 12.6709 66.1741 12.8767 66.5954 13.1118C67.0167 13.347 67.3547 13.6605 67.6094 14.0524C67.8642 14.4345 67.9915 14.9292 67.9915 15.5367C67.9915 16.0755 67.8544 16.5752 67.58 17.0357C67.3057 17.4961 66.8991 17.8684 66.3603 18.1526C65.8214 18.4269 65.1601 18.564 64.3763 18.564ZM74.0416 18.3877V8.10047H80.7577V9.61416H75.9227V12.4358H80.3168V13.9054H75.9227V16.874H80.7577V18.3877H74.0416ZM86.9465 18.3877V8.10047H91.0761C92.144 8.10047 92.9572 8.3503 93.5157 8.84997C94.0839 9.33984 94.368 9.97177 94.368 10.7458C94.368 11.3924 94.1917 11.9116 93.839 12.3035C93.4961 12.6856 93.0748 12.9453 92.5751 13.0824C93.163 13.2 93.6479 13.4939 94.03 13.9642C94.4121 14.4247 94.6032 14.9635 94.6032 15.5808C94.6032 16.3939 94.3093 17.0651 93.7214 17.5941C93.1336 18.1232 92.3008 18.3877 91.2231 18.3877H86.9465ZM88.8276 12.4211H90.7969C91.326 12.4211 91.7326 12.2986 92.0167 12.0537C92.3008 11.8088 92.4429 11.461 92.4429 11.0103C92.4429 10.5792 92.3008 10.2412 92.0167 9.99626C91.7424 9.74153 91.326 9.61416 90.7675 9.61416H88.8276V12.4211ZM88.8276 16.8593H90.9292C91.4876 16.8593 91.9187 16.7319 92.2224 16.4772C92.5359 16.2127 92.6927 15.8453 92.6927 15.375C92.6927 14.8949 92.531 14.5177 92.2077 14.2434C91.8844 13.9691 91.4484 13.8319 90.8998 13.8319H88.8276V16.8593ZM99.8791 18.3877L103.641 8.10047H105.757L109.52 18.3877H107.521L106.698 16.0069H102.686L101.848 18.3877H99.8791ZM103.2 14.5373H106.184L104.685 10.2608L103.2 14.5373ZM115.254 18.3877V8.10047H117.135L121.97 15.3456V8.10047H123.851V18.3877H121.97L117.135 11.1572V18.3877H115.254ZM130.254 18.3877V8.10047H132.135V12.2594L135.941 8.10047H138.263L134.472 12.186L138.366 18.3877H136.059L133.12 13.6262L132.135 14.699V18.3877H130.254Z" fill="white"/>
<path d="M45.7326 30.6123V25.4673H47.5158C47.9176 25.4673 48.2609 25.594 48.5455 25.8476C48.8302 26.0987 48.9725 26.4013 48.9725 26.7553C48.9725 27.0304 48.8888 27.2768 48.7213 27.4944C48.5539 27.7121 48.3458 27.8448 48.097 27.8927C48.4199 27.9262 48.6914 28.0673 48.9115 28.316C49.1339 28.5648 49.2452 28.8578 49.2452 29.1951C49.2452 29.5898 49.0981 29.9246 48.8038 30.1997C48.512 30.4748 48.1568 30.6123 47.7382 30.6123H45.7326ZM46.2816 27.7097H47.5014C47.755 27.7097 47.9703 27.6248 48.1473 27.455C48.3243 27.2827 48.4128 27.0734 48.4128 26.8271C48.4128 26.5974 48.3231 26.4025 48.1437 26.2422C47.9667 26.0796 47.7526 25.9983 47.5014 25.9983H46.2816V27.7097ZM46.2816 30.0849H47.7095C47.987 30.0849 48.2178 29.9928 48.402 29.8086C48.5862 29.6244 48.6783 29.3972 48.6783 29.1269C48.6783 28.859 48.585 28.633 48.3984 28.4488C48.2142 28.2646 47.987 28.1725 47.7167 28.1725H46.2816V30.0849ZM52.7254 27.0423H53.2636V30.6123H52.7254V30.0526C52.613 30.2416 52.442 30.3946 52.2124 30.5118C51.9827 30.6267 51.7376 30.6841 51.4768 30.6841C51.0343 30.6841 50.6779 30.5394 50.4076 30.2499C50.1397 29.9581 50.0058 29.5742 50.0058 29.0982V27.0423H50.544V29.0265C50.544 29.3709 50.6397 29.6472 50.831 29.8553C51.0224 30.061 51.2747 30.1638 51.5881 30.1638C51.8249 30.1638 52.0461 30.1064 52.2518 29.9916C52.4575 29.8744 52.6154 29.7189 52.7254 29.5252V27.0423ZM54.5624 25.4816C54.6653 25.4816 54.7562 25.5199 54.8351 25.5964C54.914 25.673 54.9535 25.7627 54.9535 25.8655C54.9535 25.9708 54.914 26.0628 54.8351 26.1418C54.7562 26.2183 54.6653 26.2566 54.5624 26.2566C54.4572 26.2566 54.3675 26.2183 54.2933 26.1418C54.2192 26.0652 54.1821 25.9732 54.1821 25.8655C54.1821 25.7627 54.2192 25.673 54.2933 25.5964C54.3675 25.5199 54.4572 25.4816 54.5624 25.4816ZM54.2897 27.0423H54.8279V30.6123H54.2897V27.0423ZM56.4138 25.4673V30.6123H55.8756V25.4673H56.4138ZM60.156 25.4673H60.6906V30.6123H60.156V30.0526C60.0531 30.232 59.8833 30.3827 59.6465 30.5047C59.4097 30.6243 59.1633 30.6841 58.9074 30.6841C58.4003 30.6841 57.9757 30.5059 57.6337 30.1495C57.2916 29.7907 57.1206 29.347 57.1206 28.8184C57.1206 28.2921 57.2916 27.852 57.6337 27.498C57.9757 27.144 58.4003 26.967 58.9074 26.967C59.1657 26.967 59.4133 27.028 59.6501 27.15C59.8893 27.2696 60.0579 27.4191 60.156 27.5985V25.4673ZM58.9935 30.1782C59.2279 30.1782 59.4539 30.1172 59.6716 29.9952C59.8893 29.8732 60.0507 29.7189 60.156 29.5323V28.1295C60.0531 27.9333 59.8928 27.7743 59.6752 27.6523C59.4599 27.5279 59.2327 27.4657 58.9935 27.4657C58.6108 27.4657 58.2903 27.5949 58.0319 27.8532C57.776 28.1091 57.648 28.4309 57.648 28.8184C57.648 29.2058 57.776 29.53 58.0319 29.7907C58.2903 30.049 58.6108 30.1782 58.9935 30.1782ZM61.9894 25.4816C62.0922 25.4816 62.1831 25.5199 62.2621 25.5964C62.341 25.673 62.3805 25.7627 62.3805 25.8655C62.3805 25.9708 62.341 26.0628 62.2621 26.1418C62.1831 26.2183 62.0922 26.2566 61.9894 26.2566C61.8841 26.2566 61.7944 26.2183 61.7203 26.1418C61.6461 26.0652 61.6091 25.9732 61.6091 25.8655C61.6091 25.7627 61.6461 25.673 61.7203 25.5964C61.7944 25.5199 61.8841 25.4816 61.9894 25.4816ZM61.7167 27.0423H62.2549V30.6123H61.7167V27.0423ZM65.0678 26.967C65.5127 26.967 65.8691 27.1117 66.137 27.4011C66.4049 27.6906 66.5388 28.0757 66.5388 28.5564V30.6123H66.0006V28.6282C66.0006 28.2838 65.905 28.0087 65.7136 27.803C65.5223 27.5949 65.2699 27.4908 64.9566 27.4908C64.7198 27.4908 64.4973 27.5482 64.2892 27.6631C64.0835 27.7755 63.9268 27.9286 63.8192 28.1223V30.6123H63.281V27.0423H63.8192V27.5985C63.9364 27.4047 64.1074 27.2516 64.3323 27.1392C64.5595 27.0244 64.8047 26.967 65.0678 26.967ZM70.3886 27.0352H70.9232V30.5011C70.9232 30.9843 70.7642 31.3765 70.4461 31.6779C70.1303 31.9817 69.7213 32.1336 69.219 32.1336C68.8913 32.1336 68.5815 32.0762 68.2897 31.9614C67.9979 31.8489 67.7791 31.6959 67.6331 31.5021L67.9202 31.1397C68.0469 31.2976 68.2239 31.422 68.4512 31.5129C68.6808 31.6038 68.932 31.6492 69.2046 31.6492C69.5515 31.6492 69.8349 31.5404 70.055 31.3227C70.2774 31.1074 70.3886 30.8312 70.3886 30.4939V30.0167C70.2858 30.1937 70.116 30.342 69.8792 30.4616C69.6424 30.5812 69.396 30.641 69.1401 30.641C68.633 30.641 68.2084 30.464 67.8664 30.11C67.5243 29.756 67.3533 29.3183 67.3533 28.7968C67.3533 28.2778 67.5243 27.8424 67.8664 27.4908C68.2084 27.1368 68.633 26.9598 69.1401 26.9598C69.3984 26.9598 69.646 27.0196 69.8828 27.1392C70.1196 27.2588 70.2882 27.4071 70.3886 27.5841V27.0352ZM69.2262 30.1423C69.4606 30.1423 69.6866 30.0813 69.9043 29.9593C70.1219 29.8373 70.2834 29.683 70.3886 29.4965V28.1151C70.2858 27.9238 70.1255 27.7671 69.9079 27.6451C69.6902 27.5207 69.463 27.4585 69.2262 27.4585C68.8435 27.4585 68.5229 27.5853 68.2646 27.8389C68.0087 28.0924 67.8807 28.4117 67.8807 28.7968C67.8807 29.1819 68.0087 29.5024 68.2646 29.7584C68.5229 30.0143 68.8435 30.1423 69.2262 30.1423ZM75.383 25.4673C75.7346 25.4673 76.0659 25.5318 76.3769 25.661C76.6902 25.7878 76.9593 25.9636 77.1841 26.1884C77.409 26.4109 77.586 26.6812 77.7151 26.9993C77.8467 27.315 77.9125 27.6547 77.9125 28.0183C77.9125 28.3818 77.8467 28.7251 77.7151 29.048C77.586 29.3685 77.409 29.6436 77.1841 29.8732C76.9593 30.1004 76.6902 30.281 76.3769 30.415C76.0659 30.5465 75.7346 30.6123 75.383 30.6123H73.79V25.4673H75.383ZM75.4117 30.0849C75.9619 30.0849 76.4199 29.8887 76.7859 29.4965C77.1542 29.1018 77.3384 28.6091 77.3384 28.0183C77.3384 27.4322 77.1554 26.9491 76.7895 26.5687C76.4259 26.1884 75.9666 25.9983 75.4117 25.9983H74.3389V30.0849H75.4117ZM81.9883 28.6641C81.9883 28.7167 81.9835 28.7908 81.974 28.8865H78.9888C79.0104 29.2812 79.1419 29.5993 79.3835 29.8409C79.6275 30.0801 79.9349 30.1997 80.3056 30.1997C80.5639 30.1997 80.7959 30.1471 81.0017 30.0418C81.2098 29.9366 81.3652 29.7931 81.4681 29.6113L81.8915 29.884C81.7551 30.1303 81.5446 30.3253 81.26 30.4688C80.9753 30.6123 80.6524 30.6841 80.2912 30.6841C80.0425 30.6841 79.8057 30.6362 79.5808 30.5405C79.3584 30.4449 79.1646 30.3145 78.9996 30.1495C78.837 29.9844 78.7078 29.7859 78.6121 29.5539C78.5164 29.3195 78.4686 29.0695 78.4686 28.804C78.4686 28.2897 78.6444 27.8556 78.996 27.5016C79.3476 27.1452 79.777 26.967 80.2841 26.967C80.7649 26.967 81.1691 27.1308 81.4968 27.4585C81.8245 27.7838 81.9883 28.1857 81.9883 28.6641ZM79.0211 28.4667H81.4358C81.4143 28.1606 81.2923 27.9094 81.0698 27.7133C80.8498 27.5148 80.5807 27.4155 80.2625 27.4155C79.9492 27.4155 79.6789 27.5124 79.4517 27.7061C79.2268 27.8975 79.0833 28.151 79.0211 28.4667ZM82.8674 25.4673H85.7413V25.9983H83.4163V27.6595H85.4901V28.1869H83.4163V30.6123H82.8674V25.4673ZM86.6239 25.4816C86.7267 25.4816 86.8176 25.5199 86.8966 25.5964C86.9755 25.673 87.015 25.7627 87.015 25.8655C87.015 25.9708 86.9755 26.0628 86.8966 26.1418C86.8176 26.2183 86.7267 26.2566 86.6239 26.2566C86.5186 26.2566 86.4289 26.2183 86.3548 26.1418C86.2806 26.0652 86.2436 25.9732 86.2436 25.8655C86.2436 25.7627 86.2806 25.673 86.3548 25.5964C86.4289 25.5199 86.5186 25.4816 86.6239 25.4816ZM86.3512 27.0423H86.8894V30.6123H86.3512V27.0423ZM88.7479 29.8983L88.2564 31.3909H87.8294L88.1452 29.8983H88.7479ZM91.5286 30.6123V25.4673H93.3117C93.7136 25.4673 94.0568 25.594 94.3415 25.8476C94.6261 26.0987 94.7684 26.4013 94.7684 26.7553C94.7684 27.0304 94.6847 27.2768 94.5173 27.4944C94.3498 27.7121 94.1417 27.8448 93.893 27.8927C94.2159 27.9262 94.4874 28.0673 94.7074 28.316C94.9299 28.5648 95.0411 28.8578 95.0411 29.1951C95.0411 29.5898 94.894 29.9246 94.5998 30.1997C94.308 30.4748 93.9528 30.6123 93.5342 30.6123H91.5286ZM92.0775 27.7097H93.2974C93.5509 27.7097 93.7662 27.6248 93.9432 27.455C94.1202 27.2827 94.2087 27.0734 94.2087 26.8271C94.2087 26.5974 94.119 26.4025 93.9396 26.2422C93.7626 26.0796 93.5485 25.9983 93.2974 25.9983H92.0775V27.7097ZM92.0775 30.0849H93.5055C93.7829 30.0849 94.0138 29.9928 94.1979 29.8086C94.3821 29.6244 94.4742 29.3972 94.4742 29.1269C94.4742 28.859 94.3809 28.633 94.1944 28.4488C94.0102 28.2646 93.7829 28.1725 93.5127 28.1725H92.0775V30.0849ZM98.5214 27.0423H99.0596V30.6123H98.5214V30.0526C98.4089 30.2416 98.2379 30.3946 98.0083 30.5118C97.7787 30.6267 97.5335 30.6841 97.2728 30.6841C96.8303 30.6841 96.4739 30.5394 96.2036 30.2499C95.9357 29.9581 95.8017 29.5742 95.8017 29.0982V27.0423H96.3399V29.0265C96.3399 29.3709 96.4356 29.6472 96.627 29.8553C96.8183 30.061 97.0707 30.1638 97.384 30.1638C97.6208 30.1638 97.8421 30.1064 98.0478 29.9916C98.2535 29.8744 98.4113 29.7189 98.5214 29.5252V27.0423ZM100.358 25.4816C100.461 25.4816 100.552 25.5199 100.631 25.5964C100.71 25.673 100.749 25.7627 100.749 25.8655C100.749 25.9708 100.71 26.0628 100.631 26.1418C100.552 26.2183 100.461 26.2566 100.358 26.2566C100.253 26.2566 100.163 26.2183 100.089 26.1418C100.015 26.0652 99.9781 25.9732 99.9781 25.8655C99.9781 25.7627 100.015 25.673 100.089 25.5964C100.163 25.5199 100.253 25.4816 100.358 25.4816ZM100.086 27.0423H100.624V30.6123H100.086V27.0423ZM102.21 25.4673V30.6123H101.672V25.4673H102.21ZM105.952 25.4673H106.487V30.6123H105.952V30.0526C105.849 30.232 105.679 30.3827 105.442 30.5047C105.206 30.6243 104.959 30.6841 104.703 30.6841C104.196 30.6841 103.772 30.5059 103.43 30.1495C103.088 29.7907 102.917 29.347 102.917 28.8184C102.917 28.2921 103.088 27.852 103.43 27.498C103.772 27.144 104.196 26.967 104.703 26.967C104.962 26.967 105.209 27.028 105.446 27.15C105.685 27.2696 105.854 27.4191 105.952 27.5985V25.4673ZM104.789 30.1782C105.024 30.1782 105.25 30.1172 105.468 29.9952C105.685 29.8732 105.847 29.7189 105.952 29.5323V28.1295C105.849 27.9333 105.689 27.7743 105.471 27.6523C105.256 27.5279 105.029 27.4657 104.789 27.4657C104.407 27.4657 104.086 27.5949 103.828 27.8532C103.572 28.1091 103.444 28.4309 103.444 28.8184C103.444 29.2058 103.572 29.53 103.828 29.7907C104.086 30.049 104.407 30.1782 104.789 30.1782ZM107.785 25.4816C107.888 25.4816 107.979 25.5199 108.058 25.5964C108.137 25.673 108.176 25.7627 108.176 25.8655C108.176 25.9708 108.137 26.0628 108.058 26.1418C107.979 26.2183 107.888 26.2566 107.785 26.2566C107.68 26.2566 107.59 26.2183 107.516 26.1418C107.442 26.0652 107.405 25.9732 107.405 25.8655C107.405 25.7627 107.442 25.673 107.516 25.5964C107.59 25.5199 107.68 25.4816 107.785 25.4816ZM107.513 27.0423H108.051V30.6123H107.513V27.0423ZM110.864 26.967C111.309 26.967 111.665 27.1117 111.933 27.4011C112.201 27.6906 112.335 28.0757 112.335 28.5564V30.6123H111.797V28.6282C111.797 28.2838 111.701 28.0087 111.51 27.803C111.318 27.5949 111.066 27.4908 110.753 27.4908C110.516 27.4908 110.293 27.5482 110.085 27.6631C109.879 27.7755 109.723 27.9286 109.615 28.1223V30.6123H109.077V27.0423H109.615V27.5985C109.732 27.4047 109.903 27.2516 110.128 27.1392C110.355 27.0244 110.601 26.967 110.864 26.967ZM116.185 27.0352H116.719V30.5011C116.719 30.9843 116.56 31.3765 116.242 31.6779C115.926 31.9817 115.517 32.1336 115.015 32.1336C114.687 32.1336 114.377 32.0762 114.086 31.9614C113.794 31.8489 113.575 31.6959 113.429 31.5021L113.716 31.1397C113.843 31.2976 114.02 31.422 114.247 31.5129C114.477 31.6038 114.728 31.6492 115.001 31.6492C115.347 31.6492 115.631 31.5404 115.851 31.3227C116.073 31.1074 116.185 30.8312 116.185 30.4939V30.0167C116.082 30.1937 115.912 30.342 115.675 30.4616C115.438 30.5812 115.192 30.641 114.936 30.641C114.429 30.641 114.004 30.464 113.662 30.11C113.32 29.756 113.149 29.3183 113.149 28.7968C113.149 28.2778 113.32 27.8424 113.662 27.4908C114.004 27.1368 114.429 26.9598 114.936 26.9598C115.194 26.9598 115.442 27.0196 115.679 27.1392C115.916 27.2588 116.084 27.4071 116.185 27.5841V27.0352ZM115.022 30.1423C115.257 30.1423 115.483 30.0813 115.7 29.9593C115.918 29.8373 116.079 29.683 116.185 29.4965V28.1151C116.082 27.9238 115.921 27.7671 115.704 27.6451C115.486 27.5207 115.259 27.4585 115.022 27.4585C114.639 27.4585 114.319 27.5853 114.061 27.8389C113.805 28.0924 113.677 28.4117 113.677 28.7968C113.677 29.1819 113.805 29.5024 114.061 29.7584C114.319 30.0143 114.639 30.1423 115.022 30.1423ZM123.149 25.4673V25.9983H121.459V30.6123H120.906V25.9983H119.216V25.4673H123.149ZM124.885 26.967C125.014 26.967 125.14 26.9849 125.262 27.0208L125.233 27.5267C125.116 27.4813 124.988 27.4585 124.849 27.4585C124.687 27.4585 124.517 27.5219 124.34 27.6487C124.163 27.7731 124.019 27.9405 123.909 28.151V30.6123H123.371V27.0423H123.909V27.6056C124.005 27.4143 124.145 27.26 124.329 27.1428C124.513 27.0256 124.699 26.967 124.885 26.967ZM128.602 27.0423H129.14V30.6123H128.602V30.0526C128.49 30.2416 128.319 30.3946 128.089 30.5118C127.86 30.6267 127.614 30.6841 127.354 30.6841C126.911 30.6841 126.555 30.5394 126.285 30.2499C126.017 29.9581 125.883 29.5742 125.883 29.0982V27.0423H126.421V29.0265C126.421 29.3709 126.517 29.6472 126.708 29.8553C126.899 30.061 127.152 30.1638 127.465 30.1638C127.702 30.1638 127.923 30.1064 128.129 29.9916C128.334 29.8744 128.492 29.7189 128.602 29.5252V27.0423ZM131.336 30.6841C131.068 30.6841 130.804 30.6374 130.543 30.5441C130.283 30.4508 130.067 30.3265 129.898 30.171L130.138 29.7656C130.277 29.9043 130.457 30.0179 130.68 30.1064C130.902 30.1949 131.119 30.2392 131.329 30.2392C131.571 30.2392 131.766 30.1841 131.914 30.0741C132.062 29.9641 132.136 29.8254 132.136 29.6579C132.136 29.5335 132.097 29.4307 132.018 29.3494C131.939 29.2656 131.836 29.2023 131.709 29.1592C131.585 29.1138 131.446 29.0743 131.293 29.0408C131.143 29.0073 130.991 28.969 130.838 28.926C130.687 28.8805 130.548 28.8255 130.421 28.7609C130.297 28.694 130.195 28.5971 130.116 28.4703C130.037 28.3436 129.998 28.1905 129.998 28.0111C129.998 27.7001 130.119 27.449 130.36 27.2576C130.602 27.0639 130.918 26.967 131.308 26.967C131.556 26.967 131.793 27.0077 132.018 27.089C132.245 27.1679 132.427 27.2815 132.563 27.4298L132.312 27.8353C132.195 27.7085 132.036 27.6068 131.835 27.5303C131.636 27.4538 131.446 27.4155 131.265 27.4155C131.044 27.4155 130.867 27.4669 130.734 27.5698C130.602 27.6702 130.536 27.8054 130.536 27.9752C130.536 28.09 130.576 28.1857 130.655 28.2622C130.734 28.3364 130.835 28.395 130.96 28.438C131.086 28.4787 131.226 28.517 131.379 28.5529C131.532 28.5863 131.686 28.627 131.839 28.6748C131.992 28.7227 132.13 28.7825 132.255 28.8542C132.382 28.926 132.484 29.0288 132.563 29.1628C132.642 29.2967 132.682 29.457 132.682 29.6436C132.682 29.9473 132.556 30.1973 132.305 30.3934C132.056 30.5872 131.733 30.6841 131.336 30.6841ZM135.218 30.1208L135.258 30.5908C135.155 30.629 135.041 30.6482 134.917 30.6482C134.549 30.6482 134.251 30.5346 134.024 30.3073C133.796 30.0801 133.683 29.7656 133.683 29.3637V27.5411H132.972V27.0423H133.683V26.0557H134.214V27.0423H135.218V27.5411H134.214V29.3422C134.214 29.5957 134.286 29.7955 134.429 29.9414C134.575 30.0849 134.76 30.1566 134.985 30.1566C135.069 30.1566 135.147 30.1447 135.218 30.1208Z" fill="white"/>
<defs>
<filter id="filter0_b_294_1066" x="-25.3125" y="-25.3125" width="86.625" height="74.605" filterUnits="userSpaceOnUse" color-interpolation-filters="sRGB">
<feFlood flood-opacity="0" result="BackgroundImageFix"/>
<feGaussianBlur in="BackgroundImageFix" stdDeviation="12.6563"/>
<feComposite in2="SourceAlpha" operator="in" result="effect1_backgroundBlur_294_1066"/>
<feBlend mode="normal" in="SourceGraphic" in2="effect1_backgroundBlur_294_1066" result="shape"/>
</filter>
<filter id="filter1_d_294_1066" x="-1.125" y="15.9937" width="22.6499" height="2.8501" filterUnits="userSpaceOnUse" color-interpolation-filters="sRGB">
<feFlood flood-opacity="0" result="BackgroundImageFix"/>
<feColorMatrix in="SourceAlpha" type="matrix" values="0 0 0 0 0 0 0 0 0 0 0 0 0 0 0 0 0 0 127 0" result="hardAlpha"/>
<feOffset dy="-0.28125"/>
<feGaussianBlur stdDeviation="0.5625"/>
<feComposite in2="hardAlpha" operator="out"/>
<feColorMatrix type="matrix" values="0 0 0 0 1 0 0 0 0 1 0 0 0 0 1 0 0 0 1 0"/>
<feBlend mode="normal" in2="BackgroundImageFix" result="effect1_dropShadow_294_1066"/>
<feBlend mode="normal" in="SourceGraphic" in2="effect1_dropShadow_294_1066" result="shape"/>
</filter>
<linearGradient id="paint0_linear_294_1066" x1="18" y1="0" x2="18" y2="36" gradientUnits="userSpaceOnUse">
<stop stop-color="#8BAAFF"/>
<stop offset="1" stop-color="#4A6DFB"/>
</linearGradient>
<linearGradient id="paint1_linear_294_1066" x1="-7.02403e-07" y1="18" x2="36" y2="23.4" gradientUnits="userSpaceOnUse">
<stop stop-color="white"/>
<stop offset="0.491882" stop-color="white" stop-opacity="0.508118"/>
<stop offset="0.572024" stop-color="white" stop-opacity="0.427976"/>
<stop offset="1" stop-color="white" stop-opacity="0"/>
</linearGradient>
<clipPath id="clip0_294_1066">
<rect width="36" height="36" fill="white"/>
</clipPath>
</defs>
</svg>
