<?xml version="1.0" encoding="utf-8"?>
<!-- Generator: Adobe Illustrator 25.0.1, SVG Export Plug-In . SVG Version: 6.00 Build 0)  -->
<svg version="1.0" id="katman_1" xmlns="http://www.w3.org/2000/svg" xmlns:xlink="http://www.w3.org/1999/xlink" x="0px" y="0px"
	 viewBox="0 0 800 600" style="enable-background:new 0 0 800 600;" xml:space="preserve">
<style type="text/css">
	.st0{fill:#232C45;}
</style>
<g>
	<path class="st0" d="M230,363.3l18.6-106.4h28.7l22.4,56.7l22.2-56.7h28.7l18.9,106.4h-28.9l-9.6-61.6l-26.4,61.6h-11.5l-25-61.6
		l-9.6,61.6H230z M382.5,263.3c0-1.9,0.4-3.8,1.2-5.6c0.8-1.7,2-3.2,3.3-4.5c1.3-1.4,2.9-2.5,4.6-3.3c1.9-0.7,3.8-1.1,5.8-1.1
		c4-0.1,7.9,1.4,10.7,4.2c1.4,1.3,2.5,2.8,3.2,4.5c0.8,1.8,1.3,3.7,1.2,5.6c0,1.9-0.4,3.8-1.2,5.6c-0.7,1.7-1.8,3.3-3.2,4.6
		c-1.4,1.3-3,2.4-4.8,3.1c-1.8,0.8-3.8,1.2-5.9,1.1c-2,0-4-0.4-5.8-1.1c-1.8-0.8-3.4-1.8-4.8-3.1c-1.4-1.3-2.5-2.9-3.3-4.6
		c-0.8-1.8-1.3-3.6-1.4-5.6L382.5,263.3z M411.1,291.1v72.4h-27.2v-72.6L411.1,291.1z M428,291.1h26.8v11.9
		c2.7-4.1,6.3-7.5,10.5-9.9c4.5-2.4,9.5-3.6,14.6-3.4h2.2c1-0.1,2-0.1,2.9,0v24.4c-3.6-1.7-7.6-2.6-11.5-2.6
		c-5.2-0.4-10.4,1.6-14,5.3c-3.4,4.4-5,9.9-4.7,15.4v30.8h-27.1L428,291.1z M495.6,291.1h26.8v11.9c2.6-4.1,6.3-7.5,10.5-9.9
		c4.4-2.4,9.4-3.6,14.5-3.4h2.3c1-0.1,1.9-0.1,2.9,0v24.4c-3.6-1.7-7.6-2.6-11.6-2.6c-5.2-0.4-10.3,1.6-14,5.3
		c-3.4,4.4-5,9.9-4.7,15.4v30.8h-27.2L495.6,291.1z M560.7,326.6c0-5.2,1.2-10.3,3.5-15c2.2-4.7,5.5-8.8,9.5-12.1
		c4.3-3.6,9.2-6.3,14.5-8.1c5.9-2,12-3.1,18.2-3c6.2,0,12.3,1,18.2,2.9c5.3,1.7,10.2,4.3,14.6,7.7c4,3.4,7.3,7.6,9.5,12.3
		c2.2,4.8,3.4,10.1,3.4,15.4c0,5.3-1.2,10.6-3.4,15.4c-2.3,4.7-5.6,8.9-9.5,12.3c-4.3,3.5-9.3,6.1-14.6,7.7c-6,2-12.2,2.9-18.5,2.8
		c-6.1,0.1-12.2-0.9-18-2.8c-5.2-1.6-10.1-4.2-14.3-7.7c-4-3.4-7.2-7.7-9.4-12.5c-2.4-4.8-3.7-10-3.8-15.4L560.7,326.6z M589,326.6
		c0,2.3,0.4,4.6,1.4,6.7c1,2,2.2,3.8,3.7,5.3c1.6,1.6,3.4,2.8,5.5,3.5c2.1,0.8,4.4,1.3,6.7,1.2c2.3,0,4.6-0.4,6.8-1.2
		c2-0.8,3.9-2,5.4-3.5c1.5-1.6,2.8-3.3,3.7-5.3c1.8-4.1,1.8-8.9,0-13c-0.9-2-2.1-3.7-3.7-5.2c-1.6-1.5-3.4-2.7-5.4-3.5
		c-2.2-0.8-4.5-1.3-6.8-1.3c-2.3,0-4.6,0.4-6.7,1.3c-2.1,0.8-4,2-5.5,3.5c-1.5,1.5-2.8,3.2-3.7,5.2c-1,2-1.6,4.2-1.8,6.5L589,326.6z
		 M666,290.8h26.8v11.8c2.7-4.1,6.3-7.5,10.5-9.9c4.5-2.4,9.5-3.6,14.6-3.5h2.2c1-0.1,1.9-0.1,2.9,0v24.4c-3.6-1.7-7.6-2.6-11.5-2.6
		c-5.3-0.4-10.4,1.6-14,5.3c-3.4,4.4-5,9.9-4.7,15.4v30.8h-27.3L666,290.8z M153.8,243.4v-29.6l-25.9-6.2v29.6l-25.9-6.1v29.7
		L76,254.7v95.7l25.9,6.2v29.6l25.9,6.2v-29.6l25.9,6.1v-29.7l25.9,6.2v-95.7L153.8,243.4z M133.1,344.2l-36.3-8.6v-56.2l36.3,8.7
		V344.2z M133.1,344.2"/>
</g>
</svg>
