<svg width="130" height="85" viewBox="0 0 130 85" fill="none" xmlns="http://www.w3.org/2000/svg">
<g filter="url(#filter0_d_473_413)">
<path d="M31.5 44.5C31.5 42.2909 33.2909 40.5 35.5 40.5H98.5C107.889 40.5 115.5 48.1112 115.5 57.5V57.5C115.5 66.8888 107.889 74.5 98.5 74.5H51.5C40.4543 74.5 31.5 65.5457 31.5 54.5V44.5Z" fill="#98D39A"/>
<path d="M52.9382 63.5V50.4091H54.9134V61.7997H60.8452V63.5H52.9382ZM63.035 63.5V53.6818H64.9462V63.5H63.035ZM64.0002 52.1669C63.6678 52.1669 63.3823 52.0561 63.1436 51.8345C62.9092 51.6087 62.7921 51.3402 62.7921 51.0291C62.7921 50.7138 62.9092 50.4453 63.1436 50.2237C63.3823 49.9979 63.6678 49.8849 64.0002 49.8849C64.3325 49.8849 64.6159 49.9979 64.8503 50.2237C65.0889 50.4453 65.2083 50.7138 65.2083 51.0291C65.2083 51.3402 65.0889 51.6087 64.8503 51.8345C64.6159 52.0561 64.3325 52.1669 64.0002 52.1669ZM69.5186 57.6705V63.5H67.6074V53.6818H69.4419V55.2798H69.5633C69.7892 54.7599 70.1429 54.3423 70.6244 54.027C71.1102 53.7116 71.7217 53.554 72.4589 53.554C73.128 53.554 73.7139 53.6946 74.2168 53.9759C74.7196 54.2528 75.1095 54.6662 75.3865 55.2159C75.6635 55.7656 75.802 56.4453 75.802 57.255V63.5H73.8908V57.4851C73.8908 56.7734 73.7054 56.2173 73.3347 55.8168C72.9639 55.4119 72.4547 55.2095 71.807 55.2095C71.3638 55.2095 70.9696 55.3054 70.6244 55.4972C70.2835 55.6889 70.0129 55.9702 69.8126 56.3409C69.6166 56.7074 69.5186 57.1506 69.5186 57.6705ZM84.6747 59.4283V53.6818H86.5923V63.5H84.713V61.7997H84.6107C84.3849 62.3239 84.0227 62.7607 83.5241 63.1101C83.0298 63.4553 82.414 63.6278 81.6768 63.6278C81.0461 63.6278 80.4879 63.4893 80.0021 63.2124C79.5205 62.9311 79.1413 62.5156 78.8643 61.9659C78.5916 61.4162 78.4552 60.7365 78.4552 59.9268V53.6818H80.3664V59.6967C80.3664 60.3658 80.5518 60.8984 80.9225 61.2947C81.2933 61.6911 81.7748 61.8892 82.3671 61.8892C82.7251 61.8892 83.0809 61.7997 83.4346 61.6207C83.7926 61.4418 84.0887 61.1712 84.3231 60.8089C84.5617 60.4467 84.6789 59.9865 84.6747 59.4283ZM89.2503 63.5V53.6818H91.0976V55.2415H91.1998C91.3788 54.7131 91.6942 54.2976 92.1459 53.995C92.6018 53.6882 93.1175 53.5348 93.6927 53.5348C93.8121 53.5348 93.9527 53.5391 94.1146 53.5476C94.2808 53.5561 94.4108 53.5668 94.5045 53.5795V55.4077C94.4278 55.3864 94.2915 55.3629 94.0954 55.3374C93.8994 55.3075 93.7034 55.2926 93.5074 55.2926C93.0557 55.2926 92.653 55.3885 92.2993 55.5803C91.9498 55.7678 91.6729 56.0298 91.4683 56.3665C91.2638 56.6989 91.1615 57.0781 91.1615 57.5043V63.5H89.2503Z" fill="#164B15"/>
</g>
<g filter="url(#filter1_d_473_413)">
<path d="M11.6094 34.2188L6.375 7L29.4062 20.6094L17.8906 23.75L11.6094 34.2188Z" fill="#1A8E1A"/>
<path d="M10.5813 34.4165L11.0984 37.1051L12.5071 34.7574L18.5719 24.6493L29.6817 21.6194L32.0707 20.9678L29.9388 19.7081L6.90758 6.09872L4.90845 4.91741L5.34696 7.1977L10.5813 34.4165Z" stroke="white" stroke-width="2.09375" stroke-linecap="square"/>
</g>
<defs>
<filter id="filter0_d_473_413" x="23.125" y="34.2188" width="100.75" height="50.75" filterUnits="userSpaceOnUse" color-interpolation-filters="sRGB">
<feFlood flood-opacity="0" result="BackgroundImageFix"/>
<feColorMatrix in="SourceAlpha" type="matrix" values="0 0 0 0 0 0 0 0 0 0 0 0 0 0 0 0 0 0 127 0" result="hardAlpha"/>
<feOffset dy="2.09375"/>
<feGaussianBlur stdDeviation="4.1875"/>
<feColorMatrix type="matrix" values="0 0 0 0 0 0 0 0 0 0 0 0 0 0 0 0 0 0 0.16 0"/>
<feBlend mode="normal" in2="BackgroundImageFix" result="effect1_dropShadow_473_413"/>
<feBlend mode="normal" in="SourceGraphic" in2="effect1_dropShadow_473_413" result="shape"/>
</filter>
<filter id="filter1_d_473_413" x="0.441895" y="0.834717" width="37.2932" height="43.1567" filterUnits="userSpaceOnUse" color-interpolation-filters="sRGB">
<feFlood flood-opacity="0" result="BackgroundImageFix"/>
<feColorMatrix in="SourceAlpha" type="matrix" values="0 0 0 0 0 0 0 0 0 0 0 0 0 0 0 0 0 0 127 0" result="hardAlpha"/>
<feOffset dy="1"/>
<feGaussianBlur stdDeviation="1.5"/>
<feColorMatrix type="matrix" values="0 0 0 0 0 0 0 0 0 0 0 0 0 0 0 0 0 0 0.35 0"/>
<feBlend mode="normal" in2="BackgroundImageFix" result="effect1_dropShadow_473_413"/>
<feBlend mode="normal" in="SourceGraphic" in2="effect1_dropShadow_473_413" result="shape"/>
</filter>
</defs>
</svg>
