<svg width="130" height="85" viewBox="0 0 130 85" fill="none" xmlns="http://www.w3.org/2000/svg">
<g filter="url(#filter0_d_473_427)">
<path d="M31.75 44.5C31.75 42.2909 33.5409 40.5 35.75 40.5H90.75C100.139 40.5 107.75 48.1112 107.75 57.5V57.5C107.75 66.8888 100.139 74.5 90.75 74.5H51.75C40.7043 74.5 31.75 65.5457 31.75 54.5V44.5Z" fill="#E3D49B"/>
<path d="M53.1882 63.5V50.4091H55.1634V61.7997H61.0952V63.5H53.1882ZM67.5165 63.6982C66.5492 63.6982 65.7161 63.4915 65.0172 63.0781C64.3226 62.6605 63.7857 62.0746 63.4064 61.3203C63.0314 60.5618 62.8439 59.6733 62.8439 58.6548C62.8439 57.6491 63.0314 56.7628 63.4064 55.9957C63.7857 55.2287 64.3141 54.63 64.9916 54.1996C65.6735 53.7692 66.4703 53.554 67.3823 53.554C67.9362 53.554 68.4732 53.6456 68.9931 53.8288C69.5129 54.0121 69.9796 54.2997 70.3929 54.6918C70.8063 55.0838 71.1323 55.593 71.3709 56.2195C71.6095 56.8416 71.7289 57.598 71.7289 58.4886V59.1662H63.9242V57.7344H69.856C69.856 57.2315 69.7537 56.7862 69.5492 56.3984C69.3446 56.0064 69.057 55.6974 68.6862 55.4716C68.3198 55.2457 67.8894 55.1328 67.395 55.1328C66.8581 55.1328 66.3894 55.2649 65.9888 55.5291C65.5925 55.7891 65.2857 56.13 65.0683 56.5518C64.8553 56.9695 64.7487 57.4233 64.7487 57.9134V59.032C64.7487 59.6882 64.8638 60.2464 65.0939 60.7067C65.3283 61.1669 65.6543 61.5185 66.0719 61.7614C66.4895 62 66.9774 62.1193 67.5357 62.1193C67.8979 62.1193 68.2281 62.0682 68.5264 61.9659C68.8247 61.8594 69.0825 61.7017 69.2999 61.4929C69.5172 61.2841 69.6834 61.0263 69.7985 60.7195L71.6074 61.0455C71.4625 61.5781 71.2026 62.0447 70.8276 62.4453C70.4568 62.8416 69.9902 63.1506 69.4277 63.3722C68.8695 63.5895 68.2324 63.6982 67.5165 63.6982ZM82.0573 53.6818L78.4969 63.5H76.4515L72.8847 53.6818H74.9366L77.4231 61.2372H77.5253L80.0055 53.6818H82.0573ZM83.9435 63.5V53.6818H85.8547V63.5H83.9435ZM84.9087 52.1669C84.5763 52.1669 84.2908 52.0561 84.0521 51.8345C83.8178 51.6087 83.7006 51.3402 83.7006 51.0291C83.7006 50.7138 83.8178 50.4453 84.0521 50.2237C84.2908 49.9979 84.5763 49.8849 84.9087 49.8849C85.2411 49.8849 85.5244 49.9979 85.7588 50.2237C85.9975 50.4453 86.1168 50.7138 86.1168 51.0291C86.1168 51.3402 85.9975 51.6087 85.7588 51.8345C85.5244 52.0561 85.2411 52.1669 84.9087 52.1669Z" fill="#786632"/>
</g>
<g filter="url(#filter1_d_473_427)">
<path d="M11.8594 34.2188L6.625 7L29.6562 20.6094L18.1406 23.75L11.8594 34.2188Z" fill="#BEA000"/>
<path d="M10.8313 34.4165L11.3484 37.1051L12.7571 34.7574L18.8219 24.6493L29.9317 21.6194L32.3207 20.9678L30.1888 19.7081L7.15758 6.09872L5.15845 4.91741L5.59696 7.1977L10.8313 34.4165Z" stroke="white" stroke-width="2.09375" stroke-linecap="square"/>
</g>
<defs>
<filter id="filter0_d_473_427" x="23.375" y="34.2188" width="92.75" height="50.75" filterUnits="userSpaceOnUse" color-interpolation-filters="sRGB">
<feFlood flood-opacity="0" result="BackgroundImageFix"/>
<feColorMatrix in="SourceAlpha" type="matrix" values="0 0 0 0 0 0 0 0 0 0 0 0 0 0 0 0 0 0 127 0" result="hardAlpha"/>
<feOffset dy="2.09375"/>
<feGaussianBlur stdDeviation="4.1875"/>
<feColorMatrix type="matrix" values="0 0 0 0 0 0 0 0 0 0 0 0 0 0 0 0 0 0 0.16 0"/>
<feBlend mode="normal" in2="BackgroundImageFix" result="effect1_dropShadow_473_427"/>
<feBlend mode="normal" in="SourceGraphic" in2="effect1_dropShadow_473_427" result="shape"/>
</filter>
<filter id="filter1_d_473_427" x="0.691895" y="0.834717" width="37.2932" height="43.1567" filterUnits="userSpaceOnUse" color-interpolation-filters="sRGB">
<feFlood flood-opacity="0" result="BackgroundImageFix"/>
<feColorMatrix in="SourceAlpha" type="matrix" values="0 0 0 0 0 0 0 0 0 0 0 0 0 0 0 0 0 0 127 0" result="hardAlpha"/>
<feOffset dy="1"/>
<feGaussianBlur stdDeviation="1.5"/>
<feColorMatrix type="matrix" values="0 0 0 0 0 0 0 0 0 0 0 0 0 0 0 0 0 0 0.35 0"/>
<feBlend mode="normal" in2="BackgroundImageFix" result="effect1_dropShadow_473_427"/>
<feBlend mode="normal" in="SourceGraphic" in2="effect1_dropShadow_473_427" result="shape"/>
</filter>
</defs>
</svg>
