<svg width="148" height="85" viewBox="0 0 148 85" fill="none" xmlns="http://www.w3.org/2000/svg">
<g filter="url(#filter0_d_473_459)">
<path d="M31.75 44.5C31.75 42.2909 33.5409 40.5 35.75 40.5H121.75C131.139 40.5 138.75 48.1112 138.75 57.5V57.5C138.75 66.8888 131.139 74.5 121.75 74.5H51.75C40.7043 74.5 31.75 65.5457 31.75 54.5V44.5Z" fill="#BCC1C7"/>
<path d="M53.1882 63.5V50.4091H57.9822C58.9112 50.4091 59.6804 50.5625 60.2898 50.8693C60.8991 51.1719 61.3551 51.5831 61.6577 52.103C61.9602 52.6186 62.1115 53.2003 62.1115 53.848C62.1115 54.3935 62.0114 54.8537 61.8111 55.2287C61.6108 55.5994 61.3423 55.8977 61.0057 56.1236C60.6733 56.3452 60.3068 56.5071 59.9062 56.6094V56.7372C60.3409 56.7585 60.7649 56.8991 61.1783 57.1591C61.5959 57.4148 61.9411 57.7791 62.2138 58.2521C62.4865 58.7251 62.6229 59.3004 62.6229 59.978C62.6229 60.647 62.4652 61.2479 62.1499 61.7805C61.8388 62.3089 61.3572 62.7287 60.7053 63.0398C60.0533 63.3466 59.2202 63.5 58.206 63.5H53.1882ZM55.1634 61.8061H58.0142C58.9602 61.8061 59.6378 61.6229 60.0469 61.2564C60.456 60.8899 60.6605 60.4318 60.6605 59.8821C60.6605 59.4687 60.5561 59.0895 60.3473 58.7443C60.1385 58.3991 59.8402 58.1243 59.4524 57.9197C59.0689 57.7152 58.6129 57.6129 58.0845 57.6129H55.1634V61.8061ZM55.1634 56.0724H57.8097C58.2528 56.0724 58.6513 55.9872 59.005 55.8168C59.3629 55.6463 59.6463 55.4077 59.8551 55.1009C60.0682 54.7898 60.1747 54.4233 60.1747 54.0014C60.1747 53.4602 59.9851 53.0064 59.6058 52.6399C59.2266 52.2734 58.6449 52.0902 57.8608 52.0902H55.1634V56.0724ZM69.0378 63.6982C68.1173 63.6982 67.3141 63.4872 66.628 63.0653C65.9419 62.6435 65.4092 62.0533 65.03 61.2947C64.6507 60.5362 64.4611 59.6499 64.4611 58.6357C64.4611 57.6172 64.6507 56.7266 65.03 55.9638C65.4092 55.201 65.9419 54.6087 66.628 54.1868C67.3141 53.7649 68.1173 53.554 69.0378 53.554C69.9583 53.554 70.7615 53.7649 71.4476 54.1868C72.1337 54.6087 72.6663 55.201 73.0456 55.9638C73.4249 56.7266 73.6145 57.6172 73.6145 58.6357C73.6145 59.6499 73.4249 60.5362 73.0456 61.2947C72.6663 62.0533 72.1337 62.6435 71.4476 63.0653C70.7615 63.4872 69.9583 63.6982 69.0378 63.6982ZM69.0442 62.0938C69.6408 62.0938 70.1351 61.9361 70.5271 61.6207C70.9192 61.3054 71.209 60.8857 71.3965 60.3615C71.5882 59.8374 71.6841 59.2599 71.6841 58.6293C71.6841 58.0028 71.5882 57.4276 71.3965 56.9034C71.209 56.375 70.9192 55.951 70.5271 55.6314C70.1351 55.3118 69.6408 55.152 69.0442 55.152C68.4433 55.152 67.9448 55.3118 67.5485 55.6314C67.1564 55.951 66.8645 56.375 66.6727 56.9034C66.4852 57.4276 66.3915 58.0028 66.3915 58.6293C66.3915 59.2599 66.4852 59.8374 66.6727 60.3615C66.8645 60.8857 67.1564 61.3054 67.5485 61.6207C67.9448 61.9361 68.4433 62.0938 69.0442 62.0938ZM79.9543 67.3864C79.1745 67.3864 78.5033 67.2841 77.9408 67.0795C77.3826 66.875 76.9266 66.6044 76.5729 66.2678C76.2192 65.9311 75.955 65.5625 75.7803 65.1619L77.4231 64.4844C77.5381 64.6719 77.6915 64.87 77.8833 65.0788C78.0793 65.2919 78.3435 65.473 78.6759 65.6222C79.0126 65.7713 79.4451 65.8459 79.9735 65.8459C80.6979 65.8459 81.2967 65.669 81.7697 65.3153C82.2427 64.9659 82.4792 64.4077 82.4792 63.6406V61.7102H82.3577C82.2427 61.919 82.0765 62.1513 81.8592 62.407C81.6461 62.6626 81.3521 62.8842 80.9771 63.0717C80.6021 63.2592 80.1141 63.353 79.5133 63.353C78.7377 63.353 78.0388 63.1719 77.4167 62.8097C76.7988 62.4432 76.3087 61.9041 75.9465 61.1925C75.5886 60.4766 75.4096 59.5966 75.4096 58.5526C75.4096 57.5085 75.5864 56.6136 75.9401 55.8679C76.2981 55.1222 76.7881 54.5511 77.4103 54.1548C78.0325 53.7543 78.7377 53.554 79.5261 53.554C80.1354 53.554 80.6276 53.6562 81.0026 53.8608C81.3776 54.0611 81.6695 54.2955 81.8783 54.5639C82.0914 54.8324 82.2555 55.0689 82.3705 55.2734H82.5111V53.6818H84.384V63.7173C84.384 64.5611 84.188 65.2536 83.7959 65.7947C83.4039 66.3359 82.8734 66.7365 82.2043 66.9964C81.5396 67.2564 80.7896 67.3864 79.9543 67.3864ZM79.9351 61.7678C80.4849 61.7678 80.9494 61.6399 81.3286 61.3842C81.7121 61.1243 82.0019 60.7536 82.1979 60.272C82.3982 59.7862 82.4984 59.2045 82.4984 58.527C82.4984 57.8665 82.4003 57.2848 82.2043 56.782C82.0083 56.2791 81.7207 55.8871 81.3414 55.6058C80.9621 55.3203 80.4934 55.1776 79.9351 55.1776C79.3599 55.1776 78.8805 55.3267 78.4969 55.625C78.1134 55.919 77.8236 56.3196 77.6276 56.8267C77.4359 57.3338 77.34 57.9006 77.34 58.527C77.34 59.1705 77.438 59.7351 77.634 60.2209C77.83 60.7067 78.1198 61.0859 78.5033 61.3587C78.8911 61.6314 79.3684 61.7678 79.9351 61.7678ZM90.7126 63.6918C89.92 63.6918 89.2126 63.4893 88.5905 63.0845C87.9726 62.6754 87.4868 62.0937 87.1331 61.3395C86.7837 60.581 86.609 59.6712 86.609 58.6101C86.609 57.549 86.7858 56.6413 87.1395 55.8871C87.4975 55.1328 87.9875 54.5554 88.6097 54.1548C89.2318 53.7543 89.9371 53.554 90.7254 53.554C91.3348 53.554 91.8249 53.6562 92.1956 53.8608C92.5706 54.0611 92.8604 54.2955 93.0649 54.5639C93.2737 54.8324 93.4357 55.0689 93.5507 55.2734H93.6658V50.4091H95.577V63.5H93.7105V61.9723H93.5507C93.4357 62.1811 93.2695 62.4197 93.0521 62.6882C92.8391 62.9567 92.545 63.1911 92.17 63.3913C91.795 63.5916 91.3092 63.6918 90.7126 63.6918ZM91.1345 62.0618C91.6842 62.0618 92.1487 61.9169 92.528 61.6271C92.9115 61.3331 93.2013 60.9261 93.3973 60.4062C93.5976 59.8864 93.6977 59.2812 93.6977 58.5909C93.6977 57.9091 93.5997 57.3125 93.4037 56.8011C93.2077 56.2898 92.92 55.8913 92.5408 55.6058C92.1615 55.3203 91.6928 55.1776 91.1345 55.1776C90.5592 55.1776 90.0798 55.3267 89.6963 55.625C89.3128 55.9233 89.023 56.3303 88.827 56.8459C88.6352 57.3615 88.5394 57.9432 88.5394 58.5909C88.5394 59.2472 88.6374 59.8374 88.8334 60.3615C89.0294 60.8857 89.3192 61.3011 89.7027 61.608C90.0905 61.9105 90.5678 62.0618 91.1345 62.0618ZM101.252 63.7173C100.63 63.7173 100.067 63.6023 99.5645 63.3722C99.0617 63.1378 98.6633 62.799 98.3692 62.3558C98.0795 61.9126 97.9346 61.3693 97.9346 60.7259C97.9346 60.1719 98.0411 59.7159 98.2542 59.358C98.4672 59 98.7549 58.7166 99.1171 58.5078C99.4793 58.299 99.8841 58.1413 100.332 58.0348C100.779 57.9283 101.235 57.8473 101.699 57.7919C102.288 57.7237 102.765 57.6683 103.131 57.6257C103.498 57.5788 103.764 57.5043 103.93 57.402C104.097 57.2997 104.18 57.1335 104.18 56.9034V56.8587C104.18 56.3004 104.022 55.8679 103.707 55.5611C103.396 55.2543 102.931 55.1009 102.313 55.1009C101.67 55.1009 101.163 55.2436 100.792 55.5291C100.425 55.8104 100.172 56.1236 100.031 56.4688L98.235 56.0597C98.4481 55.4631 98.7591 54.9815 99.1682 54.6151C99.5816 54.2443 100.057 53.9759 100.594 53.8097C101.131 53.6392 101.695 53.554 102.288 53.554C102.68 53.554 103.095 53.6009 103.534 53.6946C103.977 53.7841 104.391 53.9503 104.774 54.1932C105.162 54.4361 105.479 54.7834 105.726 55.2351C105.974 55.6825 106.097 56.2642 106.097 56.9801V63.5H104.231V62.1577H104.154C104.03 62.4048 103.845 62.6477 103.598 62.8864C103.351 63.125 103.033 63.3232 102.646 63.4808C102.258 63.6385 101.793 63.7173 101.252 63.7173ZM101.668 62.1832C102.196 62.1832 102.648 62.0788 103.023 61.87C103.402 61.6612 103.69 61.3885 103.886 61.0518C104.086 60.7109 104.186 60.3466 104.186 59.9588V58.6932C104.118 58.7614 103.986 58.8253 103.79 58.8849C103.598 58.9403 103.378 58.9893 103.131 59.032C102.884 59.0703 102.643 59.1065 102.409 59.1406C102.175 59.1705 101.979 59.196 101.821 59.2173C101.45 59.2642 101.111 59.343 100.805 59.4538C100.502 59.5646 100.259 59.7244 100.076 59.9332C99.8969 60.1378 99.8074 60.4105 99.8074 60.7514C99.8074 61.2244 99.9822 61.5824 100.332 61.8253C100.681 62.0639 101.126 62.1832 101.668 62.1832ZM110.644 57.6705V63.5H108.733V53.6818H110.567V55.2798H110.689C110.915 54.7599 111.268 54.3423 111.75 54.027C112.236 53.7116 112.847 53.554 113.584 53.554C114.253 53.554 114.839 53.6946 115.342 53.9759C115.845 54.2528 116.235 54.6662 116.512 55.2159C116.789 55.7656 116.927 56.4453 116.927 57.255V63.5H115.016V57.4851C115.016 56.7734 114.831 56.2173 114.46 55.8168C114.089 55.4119 113.58 55.2095 112.932 55.2095C112.489 55.2095 112.095 55.3054 111.75 55.4972C111.409 55.6889 111.138 55.9702 110.938 56.3409C110.742 56.7074 110.644 57.1506 110.644 57.6705Z" fill="#0E1319"/>
</g>
<g filter="url(#filter1_d_473_459)">
<path d="M11.8594 34.2188L6.625 7L29.6562 20.6094L18.1406 23.75L11.8594 34.2188Z" fill="#38414B"/>
<path d="M10.8313 34.4165L11.3484 37.1051L12.7571 34.7574L18.8219 24.6493L29.9317 21.6194L32.3207 20.9678L30.1888 19.7081L7.15758 6.09872L5.15845 4.91741L5.59696 7.1977L10.8313 34.4165Z" stroke="white" stroke-width="2.09375" stroke-linecap="square"/>
</g>
<defs>
<filter id="filter0_d_473_459" x="23.375" y="34.2188" width="123.75" height="50.75" filterUnits="userSpaceOnUse" color-interpolation-filters="sRGB">
<feFlood flood-opacity="0" result="BackgroundImageFix"/>
<feColorMatrix in="SourceAlpha" type="matrix" values="0 0 0 0 0 0 0 0 0 0 0 0 0 0 0 0 0 0 127 0" result="hardAlpha"/>
<feOffset dy="2.09375"/>
<feGaussianBlur stdDeviation="4.1875"/>
<feColorMatrix type="matrix" values="0 0 0 0 0 0 0 0 0 0 0 0 0 0 0 0 0 0 0.16 0"/>
<feBlend mode="normal" in2="BackgroundImageFix" result="effect1_dropShadow_473_459"/>
<feBlend mode="normal" in="SourceGraphic" in2="effect1_dropShadow_473_459" result="shape"/>
</filter>
<filter id="filter1_d_473_459" x="0.691895" y="0.834717" width="37.2932" height="43.1567" filterUnits="userSpaceOnUse" color-interpolation-filters="sRGB">
<feFlood flood-opacity="0" result="BackgroundImageFix"/>
<feColorMatrix in="SourceAlpha" type="matrix" values="0 0 0 0 0 0 0 0 0 0 0 0 0 0 0 0 0 0 127 0" result="hardAlpha"/>
<feOffset dy="1"/>
<feGaussianBlur stdDeviation="1.5"/>
<feColorMatrix type="matrix" values="0 0 0 0 0 0 0 0 0 0 0 0 0 0 0 0 0 0 0.35 0"/>
<feBlend mode="normal" in2="BackgroundImageFix" result="effect1_dropShadow_473_459"/>
<feBlend mode="normal" in="SourceGraphic" in2="effect1_dropShadow_473_459" result="shape"/>
</filter>
</defs>
</svg>
