<svg width="130" height="85" viewBox="0 0 130 85" fill="none" xmlns="http://www.w3.org/2000/svg">
<g filter="url(#filter0_d_473_401)">
<path d="M31.5 44.5C31.5 42.2909 33.2909 40.5 35.5 40.5H103.25C112.639 40.5 120.25 48.1112 120.25 57.5V57.5C120.25 66.8888 112.639 74.5 103.25 74.5H51.5C40.4543 74.5 31.5 65.5457 31.5 54.5V44.5Z" fill="#D4CDF9"/>
<path d="M42.419 63.5H40.3224L45.0334 50.4091H47.3153L52.0263 63.5H49.9297L46.2287 52.7869H46.1264L42.419 63.5ZM42.7706 58.3736H49.5717V60.0355H42.7706V58.3736ZM58.4732 53.6818V55.2159H52.9249V53.6818H58.4732ZM54.4462 63.5V52.544C54.4462 51.9304 54.5804 51.4212 54.8489 51.0163C55.1173 50.6072 55.4732 50.3026 55.9163 50.1023C56.3595 49.8977 56.8411 49.7955 57.361 49.7955C57.7445 49.7955 58.0726 49.8274 58.3453 49.8913C58.6181 49.951 58.8205 50.0064 58.9526 50.0575L58.5051 51.6044C58.4156 51.5788 58.3006 51.549 58.16 51.5149C58.0193 51.4766 57.8489 51.4574 57.6486 51.4574C57.1841 51.4574 56.8517 51.5724 56.6514 51.8026C56.4554 52.0327 56.3574 52.3651 56.3574 52.7997V63.5H54.4462ZM67.5232 56.0788L65.791 56.3857C65.7185 56.1641 65.6035 55.9531 65.4458 55.7528C65.2924 55.5526 65.0836 55.3885 64.8194 55.2607C64.5552 55.1328 64.2249 55.0689 63.8286 55.0689C63.2874 55.0689 62.8357 55.1903 62.4735 55.4332C62.1113 55.6719 61.9302 55.9808 61.9302 56.3601C61.9302 56.6882 62.0516 56.9524 62.2945 57.1527C62.5374 57.353 62.9295 57.517 63.4707 57.6449L65.0303 58.0028C65.9337 58.2116 66.607 58.5334 67.0502 58.968C67.4934 59.4027 67.715 59.9673 67.715 60.6619C67.715 61.25 67.5445 61.7741 67.2036 62.2344C66.867 62.6903 66.3961 63.0483 65.791 63.3082C65.1901 63.5682 64.4934 63.6982 63.7008 63.6982C62.6013 63.6982 61.7043 63.4638 61.0097 62.995C60.3151 62.522 59.889 61.8509 59.7313 60.9815L61.5786 60.7003C61.6937 61.1818 61.9302 61.5462 62.2881 61.7933C62.6461 62.0362 63.1127 62.1577 63.688 62.1577C64.3144 62.1577 64.8151 62.0277 65.1901 61.7678C65.5651 61.5036 65.7526 61.1818 65.7526 60.8026C65.7526 60.4957 65.6376 60.2379 65.4075 60.0291C65.1816 59.8203 64.8343 59.6626 64.3655 59.5561L62.7036 59.1918C61.7874 58.983 61.1099 58.6506 60.6709 58.1946C60.2363 57.7386 60.019 57.1612 60.019 56.4624C60.019 55.8828 60.1809 55.3757 60.5048 54.9411C60.8286 54.5064 61.2761 54.1676 61.8471 53.9247C62.4181 53.6776 63.0722 53.554 63.8094 53.554C64.8705 53.554 65.7057 53.7841 66.3151 54.2443C66.9245 54.7003 67.3272 55.3118 67.5232 56.0788ZM71.8176 57.6705V63.5H69.9064V50.4091H71.792V55.2798H71.9135C72.1436 54.7514 72.4951 54.3317 72.9682 54.0206C73.4412 53.7095 74.0591 53.554 74.8218 53.554C75.4951 53.554 76.0832 53.6925 76.5861 53.9695C77.0932 54.2464 77.4852 54.6598 77.7622 55.2095C78.0434 55.755 78.1841 56.4368 78.1841 57.255V63.5H76.2728V57.4851C76.2728 56.7649 76.0875 56.2067 75.7167 55.8104C75.346 55.4098 74.8304 55.2095 74.1699 55.2095C73.7182 55.2095 73.3133 55.3054 72.9554 55.4972C72.6017 55.6889 72.3226 55.9702 72.118 56.3409C71.9177 56.7074 71.8176 57.1506 71.8176 57.6705ZM85.056 63.6982C84.0887 63.6982 83.2556 63.4915 82.5567 63.0781C81.8621 62.6605 81.3252 62.0746 80.9459 61.3203C80.5709 60.5618 80.3834 59.6733 80.3834 58.6548C80.3834 57.6491 80.5709 56.7628 80.9459 55.9957C81.3252 55.2287 81.8536 54.63 82.5312 54.1996C83.213 53.7692 84.0099 53.554 84.9218 53.554C85.4758 53.554 86.0127 53.6456 86.5326 53.8288C87.0525 54.0121 87.5191 54.2997 87.9324 54.6918C88.3458 55.0838 88.6718 55.593 88.9104 56.2195C89.1491 56.8416 89.2684 57.598 89.2684 58.4886V59.1662H81.4637V57.7344H87.3955C87.3955 57.2315 87.2932 56.7862 87.0887 56.3984C86.8841 56.0064 86.5965 55.6974 86.2258 55.4716C85.8593 55.2457 85.4289 55.1328 84.9346 55.1328C84.3976 55.1328 83.9289 55.2649 83.5283 55.5291C83.132 55.7891 82.8252 56.13 82.6079 56.5518C82.3948 56.9695 82.2883 57.4233 82.2883 57.9134V59.032C82.2883 59.6882 82.4033 60.2464 82.6334 60.7067C82.8678 61.1669 83.1938 61.5185 83.6114 61.7614C84.029 62 84.517 62.1193 85.0752 62.1193C85.4374 62.1193 85.7677 62.0682 86.066 61.9659C86.3643 61.8594 86.6221 61.7017 86.8394 61.4929C87.0567 61.2841 87.2229 61.0263 87.338 60.7195L89.1469 61.0455C89.002 61.5781 88.7421 62.0447 88.3671 62.4453C87.9964 62.8416 87.5297 63.1506 86.9672 63.3722C86.409 63.5895 85.7719 63.6982 85.056 63.6982ZM95.7105 63.6982C94.7431 63.6982 93.9101 63.4915 93.2112 63.0781C92.5166 62.6605 91.9797 62.0746 91.6004 61.3203C91.2254 60.5618 91.0379 59.6733 91.0379 58.6548C91.0379 57.6491 91.2254 56.7628 91.6004 55.9957C91.9797 55.2287 92.5081 54.63 93.1856 54.1996C93.8674 53.7692 94.6643 53.554 95.5762 53.554C96.1302 53.554 96.6672 53.6456 97.187 53.8288C97.7069 54.0121 98.1735 54.2997 98.5869 54.6918C99.0002 55.0838 99.3262 55.593 99.5649 56.2195C99.8035 56.8416 99.9228 57.598 99.9228 58.4886V59.1662H92.1181V57.7344H98.05C98.05 57.2315 97.9477 56.7862 97.7431 56.3984C97.5386 56.0064 97.251 55.6974 96.8802 55.4716C96.5137 55.2457 96.0833 55.1328 95.589 55.1328C95.0521 55.1328 94.5833 55.2649 94.1828 55.5291C93.7865 55.7891 93.4797 56.13 93.2623 56.5518C93.0493 56.9695 92.9427 57.4233 92.9427 57.9134V59.032C92.9427 59.6882 93.0578 60.2464 93.2879 60.7067C93.5223 61.1669 93.8483 61.5185 94.2659 61.7614C94.6835 62 95.1714 62.1193 95.7297 62.1193C96.0919 62.1193 96.4221 62.0682 96.7204 61.9659C97.0187 61.8594 97.2765 61.7017 97.4939 61.4929C97.7112 61.2841 97.8774 61.0263 97.9924 60.7195L99.8014 61.0455C99.6565 61.5781 99.3966 62.0447 99.0216 62.4453C98.6508 62.8416 98.1842 63.1506 97.6217 63.3722C97.0635 63.5895 96.4264 63.6982 95.7105 63.6982ZM104.045 57.6705V63.5H102.133V53.6818H103.968V55.2798H104.089C104.315 54.7599 104.669 54.3423 105.15 54.027C105.636 53.7116 106.248 53.554 106.985 53.554C107.654 53.554 108.24 53.6946 108.743 53.9759C109.246 54.2528 109.636 54.6662 109.913 55.2159C110.19 55.7656 110.328 56.4453 110.328 57.255V63.5H108.417V57.4851C108.417 56.7734 108.231 56.2173 107.861 55.8168C107.49 55.4119 106.981 55.2095 106.333 55.2095C105.89 55.2095 105.496 55.3054 105.15 55.4972C104.81 55.6889 104.539 55.9702 104.339 56.3409C104.143 56.7074 104.045 57.1506 104.045 57.6705Z" fill="#542559"/>
</g>
<g filter="url(#filter1_d_473_401)">
<path d="M11.6094 34.2188L6.375 7L29.4062 20.6094L17.8906 23.75L11.6094 34.2188Z" fill="#6F60ED"/>
<path d="M10.5813 34.4165L11.0984 37.1051L12.5071 34.7574L18.5719 24.6493L29.6817 21.6194L32.0707 20.9678L29.9388 19.7081L6.90758 6.09872L4.90845 4.91741L5.34696 7.1977L10.5813 34.4165Z" stroke="white" stroke-width="2.09375" stroke-linecap="square"/>
</g>
<defs>
<filter id="filter0_d_473_401" x="23.125" y="34.2188" width="105.5" height="50.75" filterUnits="userSpaceOnUse" color-interpolation-filters="sRGB">
<feFlood flood-opacity="0" result="BackgroundImageFix"/>
<feColorMatrix in="SourceAlpha" type="matrix" values="0 0 0 0 0 0 0 0 0 0 0 0 0 0 0 0 0 0 127 0" result="hardAlpha"/>
<feOffset dy="2.09375"/>
<feGaussianBlur stdDeviation="4.1875"/>
<feColorMatrix type="matrix" values="0 0 0 0 0 0 0 0 0 0 0 0 0 0 0 0 0 0 0.16 0"/>
<feBlend mode="normal" in2="BackgroundImageFix" result="effect1_dropShadow_473_401"/>
<feBlend mode="normal" in="SourceGraphic" in2="effect1_dropShadow_473_401" result="shape"/>
</filter>
<filter id="filter1_d_473_401" x="0.441895" y="0.834717" width="37.2932" height="43.1567" filterUnits="userSpaceOnUse" color-interpolation-filters="sRGB">
<feFlood flood-opacity="0" result="BackgroundImageFix"/>
<feColorMatrix in="SourceAlpha" type="matrix" values="0 0 0 0 0 0 0 0 0 0 0 0 0 0 0 0 0 0 127 0" result="hardAlpha"/>
<feOffset dy="1"/>
<feGaussianBlur stdDeviation="1.5"/>
<feColorMatrix type="matrix" values="0 0 0 0 0 0 0 0 0 0 0 0 0 0 0 0 0 0 0.35 0"/>
<feBlend mode="normal" in2="BackgroundImageFix" result="effect1_dropShadow_473_401"/>
<feBlend mode="normal" in="SourceGraphic" in2="effect1_dropShadow_473_401" result="shape"/>
</filter>
</defs>
</svg>
