<svg width="142" height="85" viewBox="0 0 142 85" fill="none" xmlns="http://www.w3.org/2000/svg">
<g filter="url(#filter0_d_473_445)">
<path d="M31.75 44.5C31.75 42.2909 33.5409 40.5 35.75 40.5H115.75C125.139 40.5 132.75 48.1112 132.75 57.5V57.5C132.75 66.8888 125.139 74.5 115.75 74.5H51.75C40.7043 74.5 31.75 65.5457 31.75 54.5V44.5Z" fill="#F1A8B1"/>
<path d="M45.1882 50.4091H47.5852L51.7528 60.5852H51.9062L56.0739 50.4091H58.4709V63.5H56.5916V54.027H56.4702L52.6094 63.4808H51.0497L47.1889 54.0206H47.0675V63.5H45.1882V50.4091ZM64.1363 63.7173C63.5142 63.7173 62.9517 63.6023 62.4488 63.3722C61.946 63.1378 61.5476 62.799 61.2535 62.3558C60.9638 61.9126 60.8189 61.3693 60.8189 60.7259C60.8189 60.1719 60.9254 59.7159 61.1385 59.358C61.3515 59 61.6392 58.7166 62.0014 58.5078C62.3636 58.299 62.7684 58.1413 63.2159 58.0348C63.6633 57.9283 64.1193 57.8473 64.5838 57.7919C65.1719 57.7237 65.6491 57.6683 66.0156 57.6257C66.3821 57.5788 66.6484 57.5043 66.8146 57.402C66.9808 57.2997 67.0639 57.1335 67.0639 56.9034V56.8587C67.0639 56.3004 66.9062 55.8679 66.5909 55.5611C66.2798 55.2543 65.8153 55.1009 65.1974 55.1009C64.554 55.1009 64.0469 55.2436 63.6761 55.5291C63.3096 55.8104 63.0561 56.1236 62.9155 56.4688L61.1193 56.0597C61.3324 55.4631 61.6434 54.9815 62.0525 54.6151C62.4659 54.2443 62.941 53.9759 63.478 53.8097C64.0149 53.6392 64.5795 53.554 65.1719 53.554C65.5639 53.554 65.9794 53.6009 66.4183 53.6946C66.8615 53.7841 67.2748 53.9503 67.6584 54.1932C68.0461 54.4361 68.3636 54.7834 68.6108 55.2351C68.8579 55.6825 68.9815 56.2642 68.9815 56.9801V63.5H67.115V62.1577H67.0383C66.9148 62.4048 66.7294 62.6477 66.4822 62.8864C66.2351 63.125 65.9176 63.3232 65.5298 63.4808C65.142 63.6385 64.6775 63.7173 64.1363 63.7173ZM64.5518 62.1832C65.0802 62.1832 65.5319 62.0788 65.9069 61.87C66.2862 61.6612 66.5738 61.3885 66.7699 61.0518C66.9701 60.7109 67.0703 60.3466 67.0703 59.9588V58.6932C67.0021 58.7614 66.87 58.8253 66.674 58.8849C66.4822 58.9403 66.2628 58.9893 66.0156 59.032C65.7684 59.0703 65.5277 59.1065 65.2933 59.1406C65.0589 59.1705 64.8629 59.196 64.7052 59.2173C64.3345 59.2642 63.9957 59.343 63.6889 59.4538C63.3863 59.5646 63.1434 59.7244 62.9602 59.9332C62.7812 60.1378 62.6917 60.4105 62.6917 60.7514C62.6917 61.2244 62.8665 61.5824 63.2159 61.8253C63.5653 62.0639 64.0106 62.1832 64.5518 62.1832ZM76.2002 53.6818V55.2159H70.8373V53.6818H76.2002ZM72.2755 51.3295H74.1867V60.6172C74.1867 60.9879 74.2421 61.267 74.3529 61.4545C74.4637 61.6378 74.6065 61.7635 74.7812 61.8317C74.9602 61.8956 75.1541 61.9276 75.3629 61.9276C75.5163 61.9276 75.6505 61.9169 75.7656 61.8956C75.8806 61.8743 75.9701 61.8572 76.034 61.8445L76.3792 63.4233C76.2684 63.4659 76.1108 63.5085 75.9062 63.5511C75.7017 63.598 75.446 63.6236 75.1392 63.6278C74.6363 63.6364 74.1676 63.5469 73.7329 63.3594C73.2983 63.1719 72.9467 62.8821 72.6782 62.4901C72.4098 62.098 72.2755 61.6058 72.2755 61.0135V51.3295ZM82.9875 53.6818V55.2159H77.6246V53.6818H82.9875ZM79.0628 51.3295H80.974V60.6172C80.974 60.9879 81.0294 61.267 81.1402 61.4545C81.251 61.6378 81.3938 61.7635 81.5685 61.8317C81.7475 61.8956 81.9413 61.9276 82.1501 61.9276C82.3036 61.9276 82.4378 61.9169 82.5528 61.8956C82.6679 61.8743 82.7574 61.8572 82.8213 61.8445L83.1665 63.4233C83.0557 63.4659 82.898 63.5085 82.6935 63.5511C82.4889 63.598 82.2332 63.6236 81.9264 63.6278C81.4236 63.6364 80.9548 63.5469 80.5202 63.3594C80.0855 63.1719 79.734 62.8821 79.4655 62.4901C79.197 62.098 79.0628 61.6058 79.0628 61.0135V51.3295ZM87.3138 57.6705V63.5H85.4026V50.4091H87.2883V55.2798H87.4097C87.6398 54.7514 87.9914 54.3317 88.4644 54.0206C88.9374 53.7095 89.5553 53.554 90.3181 53.554C90.9914 53.554 91.5795 53.6925 92.0823 53.9695C92.5894 54.2464 92.9814 54.6598 93.2584 55.2095C93.5397 55.755 93.6803 56.4368 93.6803 57.255V63.5H91.7691V57.4851C91.7691 56.7649 91.5837 56.2067 91.213 55.8104C90.8422 55.4098 90.3266 55.2095 89.6661 55.2095C89.2144 55.2095 88.8096 55.3054 88.4516 55.4972C88.0979 55.6889 87.8188 55.9702 87.6143 56.3409C87.414 56.7074 87.3138 57.1506 87.3138 57.6705ZM100.552 63.6982C99.5849 63.6982 98.7518 63.4915 98.053 63.0781C97.3584 62.6605 96.8214 62.0746 96.4422 61.3203C96.0672 60.5618 95.8797 59.6733 95.8797 58.6548C95.8797 57.6491 96.0672 56.7628 96.4422 55.9957C96.8214 55.2287 97.3499 54.63 98.0274 54.1996C98.7092 53.7692 99.5061 53.554 100.418 53.554C100.972 53.554 101.509 53.6456 102.029 53.8288C102.549 54.0121 103.015 54.2997 103.429 54.6918C103.842 55.0838 104.168 55.593 104.407 56.2195C104.645 56.8416 104.765 57.598 104.765 58.4886V59.1662H96.9599V57.7344H102.892C102.892 57.2315 102.789 56.7862 102.585 56.3984C102.38 56.0064 102.093 55.6974 101.722 55.4716C101.356 55.2457 100.925 55.1328 100.431 55.1328C99.8939 55.1328 99.4251 55.2649 99.0246 55.5291C98.6283 55.7891 98.3214 56.13 98.1041 56.5518C97.8911 56.9695 97.7845 57.4233 97.7845 57.9134V59.032C97.7845 59.6882 97.8996 60.2464 98.1297 60.7067C98.3641 61.1669 98.6901 61.5185 99.1077 61.7614C99.5253 62 100.013 62.1193 100.571 62.1193C100.934 62.1193 101.264 62.0682 101.562 61.9659C101.861 61.8594 102.118 61.7017 102.336 61.4929C102.553 61.2841 102.719 61.0263 102.834 60.7195L104.643 61.0455C104.498 61.5781 104.238 62.0447 103.863 62.4453C103.493 62.8416 103.026 63.1506 102.463 63.3722C101.905 63.5895 101.268 63.6982 100.552 63.6982ZM109.086 63.5L106.197 53.6818H108.172L110.096 60.892H110.192L112.122 53.6818H114.098L116.015 60.8601H116.111L118.022 53.6818H119.997L117.115 63.5H115.165L113.171 56.4112H113.024L111.029 63.5H109.086Z" fill="#590A0D"/>
</g>
<g filter="url(#filter1_d_473_445)">
<path d="M11.8594 34.2188L6.625 7L29.6562 20.6094L18.1406 23.75L11.8594 34.2188Z" fill="#CC1022"/>
<path d="M10.8313 34.4165L11.3484 37.1051L12.7571 34.7574L18.8219 24.6493L29.9317 21.6194L32.3207 20.9678L30.1888 19.7081L7.15758 6.09872L5.15845 4.91741L5.59696 7.1977L10.8313 34.4165Z" stroke="white" stroke-width="2.09375" stroke-linecap="square"/>
</g>
<defs>
<filter id="filter0_d_473_445" x="23.375" y="34.2188" width="117.75" height="50.75" filterUnits="userSpaceOnUse" color-interpolation-filters="sRGB">
<feFlood flood-opacity="0" result="BackgroundImageFix"/>
<feColorMatrix in="SourceAlpha" type="matrix" values="0 0 0 0 0 0 0 0 0 0 0 0 0 0 0 0 0 0 127 0" result="hardAlpha"/>
<feOffset dy="2.09375"/>
<feGaussianBlur stdDeviation="4.1875"/>
<feColorMatrix type="matrix" values="0 0 0 0 0 0 0 0 0 0 0 0 0 0 0 0 0 0 0.16 0"/>
<feBlend mode="normal" in2="BackgroundImageFix" result="effect1_dropShadow_473_445"/>
<feBlend mode="normal" in="SourceGraphic" in2="effect1_dropShadow_473_445" result="shape"/>
</filter>
<filter id="filter1_d_473_445" x="0.691895" y="0.834717" width="37.2932" height="43.1567" filterUnits="userSpaceOnUse" color-interpolation-filters="sRGB">
<feFlood flood-opacity="0" result="BackgroundImageFix"/>
<feColorMatrix in="SourceAlpha" type="matrix" values="0 0 0 0 0 0 0 0 0 0 0 0 0 0 0 0 0 0 127 0" result="hardAlpha"/>
<feOffset dy="1"/>
<feGaussianBlur stdDeviation="1.5"/>
<feColorMatrix type="matrix" values="0 0 0 0 0 0 0 0 0 0 0 0 0 0 0 0 0 0 0.35 0"/>
<feBlend mode="normal" in2="BackgroundImageFix" result="effect1_dropShadow_473_445"/>
<feBlend mode="normal" in="SourceGraphic" in2="effect1_dropShadow_473_445" result="shape"/>
</filter>
</defs>
</svg>
