<svg width="141" height="85" viewBox="0 0 141 85" fill="none" xmlns="http://www.w3.org/2000/svg">
<g filter="url(#filter0_d_473_474)">
<path d="M31.75 44.5C31.75 42.2909 33.5409 40.5 35.75 40.5H114.75C124.139 40.5 131.75 48.1112 131.75 57.5C131.75 66.8888 124.139 74.5 114.75 74.5H51.75C40.7043 74.5 31.75 65.5457 31.75 54.5V44.5Z" fill="#E3BDE9"/>
<path d="M60.3281 53.848C60.2599 53.2429 59.9787 52.7741 59.4844 52.4418C58.9901 52.1051 58.3679 51.9368 57.6179 51.9368C57.081 51.9368 56.6165 52.022 56.2244 52.1925C55.8324 52.3587 55.5277 52.5888 55.3104 52.8828C55.0973 53.1726 54.9908 53.5028 54.9908 53.8736C54.9908 54.1847 55.0632 54.4531 55.2081 54.679C55.3572 54.9048 55.5511 55.0945 55.7898 55.2479C56.0327 55.397 56.2926 55.5227 56.5696 55.625C56.8466 55.723 57.1129 55.804 57.3686 55.8679L58.647 56.2003C59.0646 56.3026 59.4929 56.4411 59.9318 56.6158C60.3707 56.7905 60.7777 57.0206 61.1527 57.3061C61.5277 57.5916 61.8303 57.9453 62.0604 58.3672C62.2947 58.7891 62.4119 59.294 62.4119 59.8821C62.4119 60.6236 62.2202 61.282 61.8366 61.8572C61.4574 62.4325 60.9055 62.8864 60.1811 63.2188C59.4609 63.5511 58.5895 63.7173 57.5668 63.7173C56.5866 63.7173 55.7386 63.5618 55.0227 63.2507C54.3068 62.9396 53.7464 62.4986 53.3416 61.9276C52.9368 61.3523 52.7131 60.6705 52.6705 59.8821H54.652C54.6903 60.3551 54.8438 60.7493 55.1122 61.0646C55.3849 61.3757 55.7322 61.608 56.1541 61.7614C56.5803 61.9105 57.0469 61.9851 57.554 61.9851C58.1122 61.9851 58.6087 61.8977 59.0433 61.723C59.4822 61.544 59.8274 61.2969 60.0788 60.9815C60.3303 60.6619 60.456 60.2891 60.456 59.8629C60.456 59.4751 60.3452 59.1577 60.1236 58.9105C59.9063 58.6634 59.6101 58.4588 59.2351 58.2969C58.8643 58.1349 58.4446 57.9922 57.9759 57.8686L56.429 57.4467C55.3807 57.1612 54.5497 56.7415 53.9361 56.1875C53.3267 55.6335 53.022 54.9006 53.022 53.9886C53.022 53.2344 53.2266 52.576 53.6357 52.0135C54.0447 51.451 54.5987 51.0142 55.2976 50.7031C55.9964 50.3878 56.7848 50.2301 57.6626 50.2301C58.549 50.2301 59.331 50.3857 60.0085 50.6967C60.6903 51.0078 61.2273 51.4361 61.6193 51.9815C62.0114 52.5227 62.2159 53.1449 62.233 53.848H60.3281ZM68.8444 63.6982C67.924 63.6982 67.1207 63.4872 66.4346 63.0653C65.7486 62.6435 65.2159 62.0533 64.8366 61.2947C64.4574 60.5362 64.2677 59.6499 64.2677 58.6357C64.2677 57.6172 64.4574 56.7266 64.8366 55.9638C65.2159 55.201 65.7486 54.6087 66.4346 54.1868C67.1207 53.7649 67.924 53.554 68.8444 53.554C69.7649 53.554 70.5682 53.7649 71.2542 54.1868C71.9403 54.6087 72.473 55.201 72.8523 55.9638C73.2315 56.7266 73.4211 57.6172 73.4211 58.6357C73.4211 59.6499 73.2315 60.5362 72.8523 61.2947C72.473 62.0533 71.9403 62.6435 71.2542 63.0653C70.5682 63.4872 69.7649 63.6982 68.8444 63.6982ZM68.8508 62.0938C69.4474 62.0938 69.9417 61.9361 70.3338 61.6207C70.7258 61.3054 71.0156 60.8857 71.2031 60.3615C71.3949 59.8374 71.4907 59.2599 71.4907 58.6293C71.4907 58.0028 71.3949 57.4276 71.2031 56.9034C71.0156 56.375 70.7258 55.951 70.3338 55.6314C69.9417 55.3118 69.4474 55.152 68.8508 55.152C68.25 55.152 67.7514 55.3118 67.3551 55.6314C66.963 55.951 66.6711 56.375 66.4794 56.9034C66.2919 57.4276 66.1981 58.0028 66.1981 58.6293C66.1981 59.2599 66.2919 59.8374 66.4794 60.3615C66.6711 60.8857 66.963 61.3054 67.3551 61.6207C67.7514 61.9361 68.25 62.0938 68.8508 62.0938ZM75.6445 67.1818V53.6818H77.511V55.2734H77.6708C77.7816 55.0689 77.9414 54.8324 78.1502 54.5639C78.359 54.2955 78.6488 54.0611 79.0195 53.8608C79.3902 53.6562 79.8803 53.554 80.4897 53.554C81.2823 53.554 81.9897 53.7543 82.6118 54.1548C83.234 54.5554 83.7219 55.1328 84.0756 55.8871C84.4336 56.6413 84.6125 57.549 84.6125 58.6101C84.6125 59.6712 84.4357 60.581 84.082 61.3395C83.7283 62.0937 83.2425 62.6754 82.6246 63.0845C82.0067 63.4893 81.3014 63.6918 80.5088 63.6918C79.9122 63.6918 79.4243 63.5916 79.0451 63.3913C78.6701 63.1911 78.376 62.9567 78.163 62.6882C77.9499 62.4197 77.7858 62.1811 77.6708 61.9723H77.5557V67.1818H75.6445ZM77.5174 58.5909C77.5174 59.2812 77.6175 59.8864 77.8178 60.4062C78.0181 60.9261 78.3078 61.3331 78.6871 61.6271C79.0664 61.9169 79.5309 62.0618 80.0806 62.0618C80.6516 62.0618 81.1289 61.9105 81.5124 61.608C81.8959 61.3011 82.1857 60.8857 82.3817 60.3615C82.582 59.8374 82.6821 59.2472 82.6821 58.5909C82.6821 57.9432 82.5841 57.3615 82.3881 56.8459C82.1963 56.3303 81.9066 55.9233 81.5188 55.625C81.1353 55.3267 80.6559 55.1776 80.0806 55.1776C79.5266 55.1776 79.0578 55.3203 78.6743 55.6058C78.2951 55.8913 78.0074 56.2898 77.8114 56.8011C77.6154 57.3125 77.5174 57.9091 77.5174 58.5909ZM88.7551 57.6705V63.5H86.8439V50.4091H88.7295V55.2798H88.851C89.0811 54.7514 89.4326 54.3317 89.9057 54.0206C90.3787 53.7095 90.9966 53.554 91.7593 53.554C92.4326 53.554 93.0207 53.6925 93.5236 53.9695C94.0307 54.2464 94.4227 54.6598 94.6997 55.2095C94.9809 55.755 95.1216 56.4368 95.1216 57.255V63.5H93.2103V57.4851C93.2103 56.7649 93.025 56.2067 92.6542 55.8104C92.2835 55.4098 91.7679 55.2095 91.1074 55.2095C90.6557 55.2095 90.2508 55.3054 89.8929 55.4972C89.5392 55.6889 89.2601 55.9702 89.0555 56.3409C88.8552 56.7074 88.7551 57.1506 88.7551 57.6705ZM97.762 63.5V53.6818H99.6732V63.5H97.762ZM98.7272 52.1669C98.3948 52.1669 98.1093 52.0561 97.8707 51.8345C97.6363 51.6087 97.5191 51.3402 97.5191 51.0291C97.5191 50.7138 97.6363 50.4453 97.8707 50.2237C98.1093 49.9979 98.3948 49.8849 98.7272 49.8849C99.0596 49.8849 99.343 49.9979 99.5773 50.2237C99.816 50.4453 99.9353 50.7138 99.9353 51.0291C99.9353 51.3402 99.816 51.6087 99.5773 51.8345C99.343 52.0561 99.0596 52.1669 98.7272 52.1669ZM106.566 63.6982C105.599 63.6982 104.766 63.4915 104.067 63.0781C103.372 62.6605 102.835 62.0746 102.456 61.3203C102.081 60.5618 101.893 59.6733 101.893 58.6548C101.893 57.6491 102.081 56.7628 102.456 55.9957C102.835 55.2287 103.364 54.63 104.041 54.1996C104.723 53.7692 105.52 53.554 106.432 53.554C106.986 53.554 107.523 53.6456 108.043 53.8288C108.562 54.0121 109.029 54.2997 109.442 54.6918C109.856 55.0838 110.182 55.593 110.42 56.2195C110.659 56.8416 110.778 57.598 110.778 58.4886V59.1662H102.974V57.7344H108.905C108.905 57.2315 108.803 56.7862 108.599 56.3984C108.394 56.0064 108.106 55.6974 107.736 55.4716C107.369 55.2457 106.939 55.1328 106.444 55.1328C105.908 55.1328 105.439 55.2649 105.038 55.5291C104.642 55.7891 104.335 56.13 104.118 56.5518C103.905 56.9695 103.798 57.4233 103.798 57.9134V59.032C103.798 59.6882 103.913 60.2464 104.143 60.7067C104.378 61.1669 104.704 61.5185 105.121 61.7614C105.539 62 106.027 62.1193 106.585 62.1193C106.947 62.1193 107.278 62.0682 107.576 61.9659C107.874 61.8594 108.132 61.7017 108.349 61.4929C108.567 61.2841 108.733 61.0263 108.848 60.7195L110.657 61.0455C110.512 61.5781 110.252 62.0447 109.877 62.4453C109.506 62.8416 109.04 63.1506 108.477 63.3722C107.919 63.5895 107.282 63.6982 106.566 63.6982Z" fill="#542559"/>
</g>
<g filter="url(#filter1_d_473_474)">
<path d="M11.8594 34.2188L6.625 7L29.6562 20.6094L18.1406 23.75L11.8594 34.2188Z" fill="#A745B9"/>
<path d="M10.8313 34.4165L11.3484 37.1051L12.7571 34.7574L18.8219 24.6493L29.9317 21.6194L32.3207 20.9678L30.1888 19.7081L7.15758 6.09872L5.15845 4.91741L5.59696 7.1977L10.8313 34.4165Z" stroke="white" stroke-width="2.09375" stroke-linecap="square"/>
</g>
<defs>
<filter id="filter0_d_473_474" x="23.375" y="34.2188" width="116.75" height="50.75" filterUnits="userSpaceOnUse" color-interpolation-filters="sRGB">
<feFlood flood-opacity="0" result="BackgroundImageFix"/>
<feColorMatrix in="SourceAlpha" type="matrix" values="0 0 0 0 0 0 0 0 0 0 0 0 0 0 0 0 0 0 127 0" result="hardAlpha"/>
<feOffset dy="2.09375"/>
<feGaussianBlur stdDeviation="4.1875"/>
<feColorMatrix type="matrix" values="0 0 0 0 0 0 0 0 0 0 0 0 0 0 0 0 0 0 0.16 0"/>
<feBlend mode="normal" in2="BackgroundImageFix" result="effect1_dropShadow_473_474"/>
<feBlend mode="normal" in="SourceGraphic" in2="effect1_dropShadow_473_474" result="shape"/>
</filter>
<filter id="filter1_d_473_474" x="0.691895" y="0.834839" width="37.2932" height="43.1567" filterUnits="userSpaceOnUse" color-interpolation-filters="sRGB">
<feFlood flood-opacity="0" result="BackgroundImageFix"/>
<feColorMatrix in="SourceAlpha" type="matrix" values="0 0 0 0 0 0 0 0 0 0 0 0 0 0 0 0 0 0 127 0" result="hardAlpha"/>
<feOffset dy="1"/>
<feGaussianBlur stdDeviation="1.5"/>
<feColorMatrix type="matrix" values="0 0 0 0 0 0 0 0 0 0 0 0 0 0 0 0 0 0 0.35 0"/>
<feBlend mode="normal" in2="BackgroundImageFix" result="effect1_dropShadow_473_474"/>
<feBlend mode="normal" in="SourceGraphic" in2="effect1_dropShadow_473_474" result="shape"/>
</filter>
</defs>
</svg>
