<svg width="19" height="20" viewBox="0 0 19 20" fill="none" xmlns="http://www.w3.org/2000/svg">
<path fill-rule="evenodd" clip-rule="evenodd" d="M5.04025 5.42917C5.2884 4.87972 5.63528 4.38313 6.05802 3.96183L9.53925 0.5L13.0205 3.96183C13.4433 4.38313 13.7901 4.87972 14.0383 5.42917H16.4401C17.5245 5.42917 18.4117 6.31642 18.4117 7.40083V17.2592C18.4117 18.3436 17.5245 19.2308 16.4401 19.2308H2.62856C1.53428 19.2308 0.666748 18.3436 0.666748 17.2592L0.676606 7.40083C0.676606 6.31642 1.53428 5.42917 2.62856 5.42917H5.04025ZM9.53925 11.0847V2.24959L6.92063 4.85219C6.22439 5.54331 5.84237 6.45859 5.84237 7.42989C5.84237 9.44717 7.49981 11.0847 9.53925 11.0847ZM14.4683 7.40083C14.4684 7.41052 14.4684 7.4202 14.4684 7.42989C14.4684 10.1383 12.2626 12.33 9.53925 12.33C6.81589 12.33 4.61008 10.1383 4.61008 7.42989C4.61008 7.4202 4.6101 7.41052 4.61016 7.40083H2.62856V14.3017H6.58175C6.58175 15.9381 7.91268 17.2592 9.53925 17.2592C11.1659 17.2592 12.4967 15.9381 12.4967 14.3017H16.4401V7.40083H14.4683Z" fill="white"/>
</svg>
