<svg width="16" height="19" viewBox="0 0 16 19" fill="none" xmlns="http://www.w3.org/2000/svg">
<path fill-rule="evenodd" clip-rule="evenodd" d="M3.74964 0.666656C2.78314 0.666656 1.99964 1.45015 1.99964 2.41666V2.56249H14.833V2.41666C14.833 1.45015 14.0495 0.666656 13.083 0.666656H3.74964ZM0.833252 5.38802C0.833252 4.74368 1.35559 4.22135 1.99992 4.22135H14.8333C15.4776 4.22135 15.9999 4.74368 15.9999 5.38802V17.1945C15.9999 17.8388 15.4776 18.3611 14.8333 18.3611H1.99992C1.35559 18.3611 0.833252 17.8388 0.833252 17.1945V5.38802ZM3.16663 6.59113H13.6666V8.36852H3.16663V6.59113ZM8.41705 10.1459H13.6667V11.9234H10.1671C10.1671 12.9049 9.38352 13.7007 8.41705 13.7007C7.45059 13.7007 6.66705 12.9049 6.66705 11.9234H3.16668V10.1459H8.41705Z" fill="white"/>
</svg>
