{
	"asset":{
		"generator":"Khronos glTF Blender I/O v3.5.30",
		"version":"2.0"
	},
	"extensionsUsed":[
		"KHR_materials_specular",
		"KHR_materials_ior"
	],
	"scene":0,
	"scenes":[
		{
			"name":"Scene",
			"nodes":[
				0
			]
		}
	],
	"nodes":[
		{
			"mesh":0,
			"name":"knot",
			"rotation":[
				0.7071068286895752,
				0,
				0,
				0.7071068286895752
			]
		}
	],
	"materials":[
		{
			"doubleSided":true,
			"extensions":{
				"KHR_materials_specular":{
					"specularColorFactor":[
						0,
						0,
						0
					]
				},
				"KHR_materials_ior":{
					"ior":1.4500000476837158
				}
			},
			"name":"part1",
			"pbrMetallicRoughness":{
				"baseColorFactor":[
					0.800000011920929,
					0.800000011920929,
					0.800000011920929,
					1
				],
				"metallicFactor":0
			}
		},
		{
			"doubleSided":true,
			"extensions":{
				"KHR_materials_specular":{
					"specularColorFactor":[
						0,
						0,
						0
					]
				},
				"KHR_materials_ior":{
					"ior":1.4500000476837158
				}
			},
			"name":"part2",
			"pbrMetallicRoughness":{
				"baseColorFactor":[
					0.800000011920929,
					0.800000011920929,
					0.800000011920929,
					1
				],
				"metallicFactor":0
			}
		},
		{
			"doubleSided":true,
			"extensions":{
				"KHR_materials_specular":{
					"specularColorFactor":[
						0,
						0,
						0
					]
				},
				"KHR_materials_ior":{
					"ior":1.4500000476837158
				}
			},
			"name":"part3",
			"pbrMetallicRoughness":{
				"baseColorFactor":[
					0.800000011920929,
					0.800000011920929,
					0.800000011920929,
					1
				],
				"metallicFactor":0
			}
		},
		{
			"doubleSided":true,
			"extensions":{
				"KHR_materials_specular":{
					"specularColorFactor":[
						0,
						0,
						0
					]
				},
				"KHR_materials_ior":{
					"ior":1.4500000476837158
				}
			},
			"name":"part4",
			"pbrMetallicRoughness":{
				"baseColorFactor":[
					0.800000011920929,
					0.800000011920929,
					0.800000011920929,
					1
				],
				"metallicFactor":0
			}
		}
	],
	"meshes":[
		{
			"name":"knot",
			"primitives":[
				{
					"attributes":{
						"POSITION":0,
						"NORMAL":1
					},
					"indices":2,
					"material":0
				},
				{
					"attributes":{
						"POSITION":3,
						"NORMAL":4
					},
					"indices":5,
					"material":1
				},
				{
					"attributes":{
						"POSITION":6,
						"NORMAL":7
					},
					"indices":8,
					"material":2
				},
				{
					"attributes":{
						"POSITION":9,
						"NORMAL":10
					},
					"indices":11,
					"material":3
				}
			]
		}
	],
	"accessors":[
		{
			"bufferView":0,
			"componentType":5126,
			"count":40960,
			"max":[
				104.34242248535156,
				191.31076049804688,
				219.32479858398438
			],
			"min":[
				-104.40278625488281,
				-218.097900390625,
				-138.83978271484375
			],
			"type":"VEC3"
		},
		{
			"bufferView":1,
			"componentType":5126,
			"count":40960,
			"type":"VEC3"
		},
		{
			"bufferView":2,
			"componentType":5123,
			"count":61440,
			"type":"SCALAR"
		},
		{
			"bufferView":3,
			"componentType":5126,
			"count":40960,
			"max":[
				97.58918762207031,
				217.90342712402344,
				164.16949462890625
			],
			"min":[
				-94.37982940673828,
				-181.70521545410156,
				-219.32424926757812
			],
			"type":"VEC3"
		},
		{
			"bufferView":4,
			"componentType":5126,
			"count":40960,
			"type":"VEC3"
		},
		{
			"bufferView":5,
			"componentType":5123,
			"count":61440,
			"type":"SCALAR"
		},
		{
			"bufferView":6,
			"componentType":5126,
			"count":5120,
			"max":[
				71.88916015625,
				192.86184692382812,
				149.48757934570312
			],
			"min":[
				-68.56160736083984,
				-163.11610412597656,
				-187.525634765625
			],
			"type":"VEC3"
		},
		{
			"bufferView":7,
			"componentType":5126,
			"count":5120,
			"type":"VEC3"
		},
		{
			"bufferView":8,
			"componentType":5123,
			"count":7680,
			"type":"SCALAR"
		},
		{
			"bufferView":9,
			"componentType":5126,
			"count":5120,
			"max":[
				78.43254089355469,
				171.98583984375,
				193.52447509765625
			],
			"min":[
				-76.58199310302734,
				-192.70016479492188,
				-129.4642333984375
			],
			"type":"VEC3"
		},
		{
			"bufferView":10,
			"componentType":5126,
			"count":5120,
			"type":"VEC3"
		},
		{
			"bufferView":11,
			"componentType":5123,
			"count":7680,
			"type":"SCALAR"
		}
	],
	"bufferViews":[
		{
			"buffer":0,
			"byteLength":491520,
			"byteOffset":0,
			"target":34962
		},
		{
			"buffer":0,
			"byteLength":491520,
			"byteOffset":491520,
			"target":34962
		},
		{
			"buffer":0,
			"byteLength":122880,
			"byteOffset":983040,
			"target":34963
		},
		{
			"buffer":0,
			"byteLength":491520,
			"byteOffset":1105920,
			"target":34962
		},
		{
			"buffer":0,
			"byteLength":491520,
			"byteOffset":1597440,
			"target":34962
		},
		{
			"buffer":0,
			"byteLength":122880,
			"byteOffset":2088960,
			"target":34963
		},
		{
			"buffer":0,
			"byteLength":61440,
			"byteOffset":2211840,
			"target":34962
		},
		{
			"buffer":0,
			"byteLength":61440,
			"byteOffset":2273280,
			"target":34962
		},
		{
			"buffer":0,
			"byteLength":15360,
			"byteOffset":2334720,
			"target":34963
		},
		{
			"buffer":0,
			"byteLength":61440,
			"byteOffset":2350080,
			"target":34962
		},
		{
			"buffer":0,
			"byteLength":61440,
			"byteOffset":2411520,
			"target":34962
		},
		{
			"buffer":0,
			"byteLength":15360,
			"byteOffset":2472960,
			"target":34963
		}
	],
	"buffers":[
		{
			"byteLength":2488320,
			"uri":"data:application/octet-stream;base64,"
		}
	]
}
